<?xml version="1.0" encoding="utf-8"?>
<!-- Generator: Adobe Illustrator 27.5.0, SVG Export Plug-In . SVG Version: 6.00 Build 0)  -->
<svg version="1.1" id="_x2018_лой_x5F_1" xmlns="http://www.w3.org/2000/svg" xmlns:xlink="http://www.w3.org/1999/xlink"
	 x="0px" y="0px" viewBox="0 0 2600 2000" style="enable-background:new 0 0 2600 2000;" xml:space="preserve">
<rect style="fill:#131417;" width="2600" height="2000"/>
<g>
	<path style="fill:#DCEAFF;" d="M2379.115,1546.16c-2.242,61.44-7.346,120.49-15.257,175.572
		c-12.83,89.368-89.735,155.546-180.022,155.546H525.53c-115.915,0-216.227-81.09-240.015-194.544
		c-8.668-41.366-16.349-87.493-21.201-136.574c-12.762-128.677-6.208-277.565,52.313-413.474
		c69.224-160.776,56.681-352.768,89.597-528.065c22.834-121.651,67.569-235.255,176.7-324.818
		c59.602-48.92,138.426-90.667,243.384-122.629c10.865-3.312,21.592-6.439,32.157-9.382
		c177.333-49.519,313.425-49.277,429.546-22.615c10.129,2.311,20.108,4.84,29.938,7.542c56.716,15.613,108.844,37.4,159.087,62.384
		c0.287,0.138,0.575,0.287,0.862,0.425c18.579,9.244,36.895,18.924,55.095,28.893c30.847,16.9,61.36,34.606,92.195,52.404
		c71.754,41.413,145.267,83.297,228.92,116.409c0.023,0.012,0.046,0.012,0.069,0.023c29.813,11.808,60.924,22.5,93.69,31.651
		c21.879,6.117,42.907,14.705,63.085,25.547c0.862,0.472,1.713,0.931,2.575,1.414c9.302,5.105,18.419,10.692,27.363,16.752
		C2285.058,633.871,2393.901,1141.827,2379.115,1546.16z"/>
	<path style="opacity:0.7;fill:#8CB3EA;" d="M2013.528,451.008v1101.464h-695.579V195.529h159.949
		c18.579,9.244,36.895,18.924,55.095,28.893c30.847,16.9,61.36,34.606,92.195,52.404c60.177,37.262,134.218,80.469,228.92,116.409
		c0.023,0.012,0.046,0.012,0.069,0.023c29.203,11.083,60.36,21.477,93.69,30.789c21.879,6.117,42.907,14.705,63.085,25.547
		L2013.528,451.008z"/>
	<rect x="1450.094" y="1465.223" style="fill:#71A1DB;" width="559.941" height="80.074"/>
	<rect x="1519.698" y="1385.384" style="opacity:0.8;fill:#7CAAE0;" width="490.337" height="80.074"/>
	<rect x="1609.654" y="1304.957" style="opacity:0.7;fill:#8CB3EA;" width="400.381" height="80.074"/>
	<rect x="1681.327" y="1226.058" style="opacity:0.7;fill:#8CB3EA;" width="328.708" height="80.075"/>
	<rect x="1807.121" y="1147.021" style="opacity:0.4;fill:#8CB3EA;" width="202.914" height="80.074"/>
	<rect x="1288.011" y="196.299" style="fill:#6596D1;" width="29.938" height="1349.055"/>
	<path style="fill:#6596D1;" d="M2013.528,451.008c9.302,5.105,18.419,10.692,27.363,16.751v1077.595h-27.363h-2.575V449.594
		L2013.528,451.008z"/>
	<g>
		<rect x="947.111" y="308.955" style="fill:#D6E6FE;" width="148.328" height="62.255"/>
		<rect x="1031.255" y="233.713" style="fill:#D1E3FD;" width="148.328" height="62.256"/>
	</g>
	<g>
		<rect x="949.229" y="521.121" style="fill:#D6E6FE;" width="148.328" height="62.256"/>
		<rect x="1033.374" y="600.021" style="fill:#C4DAFB;" width="148.328" height="62.256"/>
	</g>
	<g>
		<rect x="2089.467" y="1074.129" style="fill:#D6E6FE;" width="148.328" height="62.256"/>
		<rect x="2173.611" y="1153.029" style="fill:#C4DAFB;" width="148.327" height="62.256"/>
	</g>
	<rect x="1040.696" y="1421" style="fill:#C4DAFB;" width="148.328" height="62.255"/>
	<g>
		<rect x="330.586" y="1386.354" style="fill:#D6E6FE;" width="148.328" height="62.255"/>
		<rect x="410.796" y="1311.239" style="fill:#C4DAFB;" width="148.328" height="62.256"/>
	</g>
	<path style="fill:#C4DAFB;" d="M1288.459,692.207l-82.78,18.396l-85.079-16.096l-72.432,35.641l32.192,42.54l-60.935,62.084
		l54.037,96.576l-67.833,95.427l80.48,87.378l68.983-26.443l55.187,37.94l78.181-25.294
		C1288.459,1100.356,1288.459,693.357,1288.459,692.207z"/>
	<path style="fill:#AFCDFB;" d="M2379.115,1545.297c-2.242,61.441-7.346,120.491-15.257,175.574
		c-12.83,89.367-89.735,155.545-180.022,155.545H525.53c-115.915,0-216.227-81.09-240.015-194.544
		c-8.668-41.366-16.349-87.493-21.201-136.575H2379.115z"/>
	<g>
		<g>
			<path style="fill:#FFFFFF;" d="M1533.664,1832.242c-18.417,0-32.301-0.44-39.227-1.48c-33.24-4.99-72.35-19.281-77.279-26.307
				c-1.269-1.807-0.703-3.166-0.007-3.987c3.561-4.196,28.107-8.636,38.496-10.35c8.163-1.347,35.775-5.585,48.363-3.56
				c7.704,1.238,15.026,4.034,22.778,6.995c10.768,4.113,21.901,8.367,34.371,8.367c19.619,0,99.837-4.999,131.451-8.964
				c-41.683-4.837-181.278-14.198-277.479-20.053c-13,1.181-192.063,17.312-250.042,16.496
				c-34.881-0.503-86.596-19.718-107.211-27.956c-31.454-12.568-66.533-29.813-69.226-37.975c-0.763-2.312,0.733-4.339,3.904-5.288
				c19.18-5.744,107.842-16.986,140.34-15.683c16.192,0.649,38.718,9.514,62.565,18.899c23.968,9.432,51.136,20.121,64.91,18.301
				c5.473-0.725,14.063-1.807,24.008-3.06c26.434-3.329,81.862-10.311,104.765-14.33c-17.208-2.199-52.573-5.898-89.479-9.759
				c-47.733-4.992-101.836-10.651-145.127-15.907c-23.731-2.88-41.4-5.296-54.016-7.385c-20.316-3.363-24.322-5.279-24.891-7.842
				c-0.242-1.089,0.016-2.764,2.62-4.551c9.587-6.581,49.086-11.93,65.624-13.923c32.139-3.874,64.6-5.857,82.698-5.05
				c41.191,1.837,625.058,66.679,659.526,70.97c15.306,1.905,27.328-3.915,31.295-10.648c3.197-5.425,1.94-12.963-11.172-17.85
				c-12.234-4.561-43.854-11.687-74.431-18.577c-64.778-14.599-83.8-19.604-85.039-24.646c-0.339-1.379,0.524-2.685,2.368-3.582
				c0.641-0.313,1.299-0.637,1.977-0.971c12.502-6.17,33.429-16.499,84.436-13.211c49.815,3.21,186.457,31.462,199.682,45.734
				c4.532,4.891,5.893,12.716,7.469,21.776c2.679,15.401,5.715,32.856,25.161,37.902c12.616,3.274,41.911,3.456,72.926,3.649
				c51.179,0.318,104.101,0.648,118.638,13.51c6.359,5.624,7.41,11.871,3.04,18.064c-11.944,16.93-62.629,30.981-126.121,34.966
				c-46.755,2.933-87.294-2.108-107.3-5.375c-30.041-4.905-52.043-11.759-57.423-17.886c-1.978-2.253-1.891-4.609,0.231-6.483
				c-1.723-0.637-7.066-1.696-19.131-1.806c-21.756-0.196-43.489,2.626-46.992,5.096c-1.71,1.206-3.274,3.123-5.085,5.344
				c-7.257,8.897-18.224,22.344-63.604,25.902C1793.186,1823.211,1617.015,1832.242,1533.664,1832.242z M1425.085,1802.725
				c4.247,4.446,38.257,17.905,71.256,22.859c35.078,5.264,278.839-6.319,339.672-11.09c41.036-3.219,50.399-14.699,57.237-23.082
				c2.076-2.546,3.869-4.745,6.298-6.457c6.679-4.708,31.103-6.198,38.43-6.542c7.34-0.348,31.895-1.153,39.638,2.941
				c3.45,1.824,3.835,4.567,0.979,6.988c-0.082,0.069-0.236,0.199,0.27,0.775c7.296,8.31,77.648,25.531,156.651,20.569
				c69.64-4.37,110.684-19.578,119.348-31.859c3.119-4.419,2.379-8.713-2.198-12.763c-12.077-10.684-67.467-11.028-111.974-11.306
				c-33.211-0.206-61.894-0.385-75.976-4.038c-24.04-6.238-27.512-26.202-30.302-42.244c-1.408-8.099-2.738-15.748-6.357-19.653
				c-3.814-4.115-30.299-13.287-80.872-24.498c-44.066-9.769-88.219-17.091-112.484-18.654
				c-47.714-3.075-66.248,6.074-78.515,12.128c-0.005,0.003-0.011,0.005-0.017,0.009c8.556,4.225,48.59,13.246,78.394,19.963
				c32.367,7.294,62.938,14.184,75.854,18.998c14.493,5.402,20.29,14.948,14.769,24.32c-5.199,8.823-20.837,16.464-40.676,13.995
				c-34.436-4.288-617.473-69.056-658.514-70.886c-18.245-0.81-52.335,1.396-84.832,5.496c-36.225,4.571-53.213,9.292-56.696,11.646
				c4.107,1.451,19.583,4.842,76.479,11.662c42.389,5.081,94.282,10.509,140.066,15.298c28.797,3.012,53.667,5.613,72.035,7.692
				c9.801,1.11,16.948,1.981,21.851,2.664c7.228,1.007,11.209,1.563,11.209,4.159c0,2.553-3.801,3.655-15.223,5.672
				c-7.005,1.237-17.176,2.793-30.228,4.624c-23.834,3.344-53.214,7.044-74.667,9.745c-9.925,1.251-18.497,2.33-23.93,3.049
				c-17.013,2.252-43.216-8.062-70.96-18.979c-21.929-8.63-44.604-17.554-58.723-18.119c-30.333-1.225-115.485,9.428-135.395,14.933
				c0.718,1.18,3.884,4.733,17.78,12.338c12.076,6.609,28.36,14.131,45.853,21.183c42.388,17.086,81.515,27.486,104.663,27.82
				c58.234,0.833,247.266-16.315,249.169-16.489l0.489-0.044l0.492,0.029c0.727,0.045,73.432,4.475,145.4,9.457
				c42.289,2.928,76.06,5.471,100.374,7.559c14.485,1.244,25.754,2.34,33.493,3.258c12.572,1.49,15.623,2.327,16.323,4.477
				c0.415,1.274-0.542,2.531-2.438,3.2c-14.46,5.112-127.684,11.711-147.422,11.711c-14.767,0-27.45-4.845-38.641-9.119
				c-7.21-2.755-14.021-5.356-20.537-6.403C1485.943,1789.135,1433.129,1799.059,1425.085,1802.725z M1424.325,1803.145
				C1424.325,1803.145,1424.325,1803.145,1424.325,1803.145L1424.325,1803.145z"/>
		</g>
		<g>
			<g>
				<polygon style="fill:#ED7D2B;" points="2075.751,1766.402 2165.811,1766.402 2138.762,1682.918 2048.703,1682.918 				"/>
				<polygon style="fill:#F99746;" points="2111.739,1772.977 2021.681,1772.977 2048.729,1682.918 2138.788,1682.918 				"/>
			</g>
			<g>
				<g>
					<path style="fill:#FFFFFF;" d="M2054.852,1742.324l19.877-14.036c7.906-5.545,11.044-8.627,12.082-12.94
						c1.136-4.723-1.561-7.462-5.943-7.462c-4.381,0-7.97,2.396-12.82,7.188l-4.836-4.655c6.135-6.436,11.526-10.064,20.085-10.064
						c9.38,0,14.433,5.751,12.341,14.446c-1.811,7.531-6.821,11.57-16.923,18.554l-11.835,8.216h22.799l-1.778,7.396h-34.645
						L2054.852,1742.324z"/>
				</g>
			</g>
		</g>
		<g>
			<polygon style="fill:#ED7D2B;" points="1718.166,1661.906 1808.225,1661.906 1781.176,1578.422 1691.117,1578.422 			"/>
			<polygon style="fill:#F99746;" points="1754.154,1668.48 1664.096,1668.48 1691.145,1578.422 1781.203,1578.422 			"/>
			<g>
				<g>
					<path style="fill:#FFFFFF;" d="M1696.634,1636.115l7.668-5.477c2.109,4.04,5.21,6.299,10.55,6.299
						c4.725,0,9.219-2.876,10.688-7.395c1.536-4.723-1.909-7.394-8.618-7.394h-3.902l0.346-5.272l17.414-13.761h-20.745l2.382-7.326
						h31.701l-2.049,6.299l-17.804,13.693c7.244,1.095,12.479,4.997,9.674,13.625c-2.872,8.831-11.768,15.131-21.695,15.131
						C1703.891,1644.538,1699.069,1641.046,1696.634,1636.115z"/>
				</g>
			</g>
		</g>
		<g>
			<polygon style="fill:#ED7D2B;" points="1093.396,1803.491 1183.454,1803.491 1156.406,1720.007 1066.347,1720.007 			"/>
			<polygon style="fill:#F99746;" points="1129.384,1810.065 1039.325,1810.065 1066.374,1720.007 1156.433,1720.007 			"/>
			<g>
				<g>
					<path style="fill:#FFFFFF;" d="M1097.502,1746.173l-9.211,2.396l-0.109-6.847l13.874-4.107h5.889l-11.777,48.269h-8.354
						L1097.502,1746.173z"/>
				</g>
			</g>
		</g>
	</g>
	<g>
		<path style="fill:#7FA5DD;" d="M1153.277,795.16c0-6.745,5.467-12.212,12.211-12.212s12.211,5.467,12.211,12.212
			c0,6.744-5.467,12.211-12.211,12.211S1153.277,801.903,1153.277,795.16z"/>
		<g>
			<polygon style="fill:#7FA5DD;" points="1169.087,790.517 1150.602,764.42 1149.049,750.951 1119.394,730.661 1121.808,727.133 
				1153.072,748.523 1154.724,762.842 1172.576,788.046 			"/>
		</g>
		<g>
			<polygon style="fill:#7FA5DD;" points="1130.871,807.19 1128.089,803.943 1143.756,790.514 1159.107,792.22 1158.635,796.469 
				1145.129,794.968 			"/>
		</g>
	</g>
	<g>
		<path style="fill:#AFCDFB;" d="M2113.897,882.807c5.982-3.113,13.356-0.786,16.469,5.196c3.113,5.983,0.786,13.356-5.196,16.469
			c-5.982,3.113-13.356,0.787-16.469-5.196C2105.588,893.293,2107.914,885.92,2113.897,882.807z"/>
		<g>
			<polygon style="fill:#AFCDFB;" points="2125.313,894.69 2139.932,866.246 2151.163,858.651 2155.475,822.979 2159.719,823.492 
				2155.174,861.099 2143.233,869.174 2129.115,896.644 			"/>
		</g>
		<g>
			<polygon style="fill:#AFCDFB;" points="2092.884,868.483 2094.479,864.517 2113.623,872.217 2119.195,886.622 2115.209,888.164 
				2110.307,875.491 			"/>
		</g>
	</g>
	<g>
		<polygon style="fill:#7EA6E0;" points="2080.998,1582.088 2099.393,1569.059 2113.956,1575.189 2118.555,1587.262 
			2087.513,1588.986 		"/>
		<polygon style="fill:#7EA6E0;" points="2129.766,1564.268 2134.076,1556.507 2147.586,1553.633 2155.634,1557.082 
			2158.221,1564.555 		"/>
		<polygon style="fill:#7EA6E0;" points="2056.758,1570.591 2047.848,1569.441 2043.823,1574.615 2052.159,1576.627 
			2058.77,1576.053 		"/>
		<path style="fill:#7EA6E0;" d="M2147.298,1604.508l7.761-4.024l6.611,1.438l4.023,3.736c0,0-9.197,2.587-10.06,2.013
			C2154.771,1607.095,2147.298,1604.508,2147.298,1604.508z"/>
	</g>
	<g>
		<polygon style="fill:#7EA6E0;" points="1153.158,1551.466 1162.666,1537.883 1179.644,1534.487 1193.227,1542.637 
			1198.66,1556.22 1157.912,1557.578 		"/>
		<polygon style="fill:#7EA6E0;" points="1216.997,1573.877 1228.089,1563.917 1240.313,1564.822 1245.747,1569.35 
			1249.369,1576.141 1228.995,1576.141 		"/>
		<polygon style="fill:#7EA6E0;" points="1118.521,1576.594 1126.671,1569.35 1141.612,1568.444 1146.14,1573.877 1137.99,1577.952 
					"/>
		<polygon style="fill:#7EA6E0;" points="1052.419,1563.917 1057.852,1560.747 1063.511,1562.332 1064.87,1566.407 
			1052.192,1566.633 		"/>
	</g>
	<polygon style="fill:#7EA6E0;" points="545.742,1738.45 574.485,1728.103 589.431,1732.701 598.629,1748.797 545.742,1749.947 	"/>
	<polygon style="fill:#7EA6E0;" points="470.627,1711.923 504.369,1699.776 521.915,1705.175 532.712,1724.07 470.627,1725.42 	"/>
	<g>
		<rect x="1515.422" y="1645.455" style="fill:#233862;" width="21.749" height="14.564"/>
		<circle style="fill:#5474B5;" cx="1514.356" cy="1652.796" r="7.366"/>
		<ellipse style="fill:#233862;" cx="1537.063" cy="1652.741" rx="7.366" ry="7.312"/>
		<path style="fill:#F99746;" d="M1509.374,1652.796c0-2.698,2.188-4.887,4.887-4.887c2.698,0,4.886,2.188,4.886,4.887
			s-2.188,4.887-4.886,4.887C1511.562,1657.683,1509.374,1655.494,1509.374,1652.796z"/>
	</g>
	<g>
		<rect x="1156.913" y="1610.443" style="fill:#233862;" width="21.75" height="14.563"/>
		<path style="fill:#5474B5;" d="M1148.481,1617.784c0-4.068,3.298-7.366,7.366-7.366c4.068,0,7.366,3.298,7.366,7.366
			s-3.298,7.366-7.366,7.366C1151.779,1625.15,1148.481,1621.853,1148.481,1617.784z"/>
		<ellipse style="fill:#233862;" cx="1178.554" cy="1617.729" rx="7.366" ry="7.312"/>
		<path style="fill:#F99746;" d="M1150.865,1617.784c0-2.698,2.188-4.887,4.886-4.887s4.886,2.188,4.886,4.887
			s-2.188,4.886-4.886,4.886S1150.865,1620.482,1150.865,1617.784z"/>
	</g>
	<g>
		
			<rect x="1562.463" y="1625.335" transform="matrix(-1 -1.224647e-16 1.224647e-16 -1 3146.6758 3265.2334)" style="fill:#233862;" width="21.75" height="14.563"/>
		<circle style="fill:#5474B5;" cx="1585.278" cy="1632.676" r="7.366"/>
		<path style="fill:#233862;" d="M1569.938,1632.621c0-4.038-3.299-7.312-7.366-7.312c-4.068,0-7.366,3.273-7.366,7.312
			s3.298,7.313,7.366,7.313C1566.639,1639.934,1569.938,1636.659,1569.938,1632.621z"/>
		<path style="fill:#F99746;" d="M1590.26,1632.676c0-2.698-2.188-4.887-4.886-4.887c-2.699,0-4.887,2.188-4.887,4.887
			c0,2.699,2.188,4.887,4.887,4.887C1588.072,1637.563,1590.26,1635.375,1590.26,1632.676z"/>
	</g>
	<polygon style="fill:#C4DAFB;" points="1288.172,336.513 1244.77,356.49 1197.632,351.891 1135.547,401.329 1174.637,442.718 
		1242.471,434.67 1256.267,478.36 1288.076,474.815 	"/>
	<path style="fill:#D6E6FE;" d="M654.965,357.64l-34.491,28.743c0,0,19.545,59.785,19.545,63.234s-22.856,28.306-22.856,28.306
		l-100.014,15.521l27.593,53.451l-29.318,36.216l-109.2,21.511c22.834-121.651,67.569-235.255,176.7-324.818l73.191,0.805
		L654.965,357.64z"/>
	<polygon style="fill:#F99746;" points="2353.649,1328.346 2349.89,1400.249 2243.276,1394.661 2046.87,1384.371 1870.653,1375.139 
		1668.671,1364.551 1492.453,1355.318 1296.887,1345.063 1120.67,1335.83 917.572,1325.184 741.355,1315.952 549.41,1305.892 
		373.192,1296.659 334.873,1294.647 338.644,1222.744 408.19,1226.389 584.407,1235.621 776.352,1245.681 952.558,1254.913 
		952.569,1254.913 1155.667,1265.56 1331.884,1274.792 1527.451,1285.047 1703.668,1294.279 1905.65,1304.868 2081.868,1314.101 
		2278.273,1324.391 	"/>
	<polygon style="fill:#FFA766;" points="1703.668,1294.279 1668.671,1364.551 1492.453,1355.318 1527.451,1285.047 	"/>
	<polygon style="fill:#FFA766;" points="2081.868,1314.101 2046.87,1384.371 1870.653,1375.139 1905.65,1304.868 	"/>
	<polygon style="fill:#FFA766;" points="2353.649,1328.346 2349.89,1400.249 2243.276,1394.661 2278.273,1324.391 	"/>
	<polygon style="fill:#FFA766;" points="1331.884,1274.792 1296.887,1345.063 1120.67,1335.83 1155.667,1265.56 	"/>
	<polygon style="fill:#FFA766;" points="952.558,1254.913 917.572,1325.184 741.355,1315.952 776.352,1245.681 	"/>
	<polygon style="fill:#FFA766;" points="584.407,1235.621 549.41,1305.892 373.192,1296.659 408.19,1226.389 	"/>
	<g>
		<g>
			<path style="fill:#A0490D;" d="M996.799,1292.167c0.394-7.528,6.353-13.398,14.373-12.979c4.88,0.256,7.741,2.112,10.149,4.666
				l-3.169,3.286c-2.015-2.078-4.216-3.521-7.242-3.68c-5.068-0.265-8.956,3.704-9.231,8.962c-0.271,5.183,3.177,9.611,8.246,9.877
				c3.253,0.17,5.403-1.045,7.783-3.045l2.83,3.183c-2.912,2.73-6.033,4.388-10.988,4.129
				C1001.833,1306.162,996.398,1299.846,996.799,1292.167z"/>
			<path style="fill:#A0490D;" d="M1026.58,1280.449l11.803,0.617c6.204,0.325,9.661,3.844,9.394,8.95
				c-0.228,4.351-2.974,6.824-6.737,7.689l6.625,10.398l-5.485-0.287l-6.099-9.574l-5.75-0.301l-0.483,9.229l-4.653-0.243
				L1026.58,1280.449z M1037.355,1294.176c3.329,0.174,5.538-1.455,5.683-4.217c0.148-2.837-1.813-4.495-5.255-4.676l-6.771-0.354
				l-0.465,8.89L1037.355,1294.176z"/>
			<path style="fill:#A0490D;" d="M1054.193,1281.895l4.652,0.243l-1.385,26.479l-4.653-0.243L1054.193,1281.895z"/>
			<path style="fill:#A0490D;" d="M1065.918,1282.508l4.956,0.26l7.402,12.941l8.712-12.099l4.956,0.259l-1.386,26.479l-4.653-0.243
				l0.994-18.989l-9.013,12.046l-0.151-0.009l-7.635-12.841l-0.989,18.914l-4.578-0.239L1065.918,1282.508z"/>
			<path style="fill:#A0490D;" d="M1098.751,1284.226l19.632,1.027l-0.218,4.161l-14.979-0.784l-0.36,6.885l13.277,0.694
				l-0.217,4.161l-13.278-0.694l-0.372,7.111l15.169,0.794l-0.218,4.161l-19.822-1.037L1098.751,1284.226z"/>
			<path style="fill:#A0490D;" d="M1132.48,1308.674l2.974-3.183c2.42,2.326,4.889,3.708,8.18,3.88
				c2.875,0.15,4.76-1.079,4.869-3.159c0.099-1.892-0.907-2.969-5.763-4.398c-5.567-1.619-8.658-3.449-8.398-8.405
				c0.238-4.539,4.185-7.48,9.443-7.206c3.858,0.202,6.861,1.535,9.434,3.832l-2.681,3.388c-2.29-1.903-4.624-2.974-7.045-3.101
				c-2.724-0.142-4.386,1.175-4.48,2.99c-0.107,2.043,1.056,3.014,6.062,4.489c5.527,1.655,8.335,3.813,8.102,8.276
				c-0.259,4.955-4.31,7.702-9.871,7.411C1139.257,1313.276,1135.51,1311.677,1132.48,1308.674z"/>
			<path style="fill:#A0490D;" d="M1157.786,1300.59c0.394-7.527,6.353-13.398,14.373-12.979c4.879,0.256,7.741,2.112,10.148,4.666
				l-3.168,3.285c-2.016-2.078-4.216-3.521-7.242-3.679c-5.069-0.266-8.956,3.704-9.231,8.962c-0.271,5.183,3.177,9.611,8.246,9.876
				c3.253,0.171,5.403-1.044,7.784-3.044l2.83,3.183c-2.912,2.73-6.033,4.388-10.989,4.128
				C1162.819,1314.585,1157.384,1308.27,1157.786,1300.59z"/>
			<path style="fill:#A0490D;" d="M1187.831,1288.887l4.652,0.243l-1.385,26.479l-4.653-0.243L1187.831,1288.887z"/>
			<path style="fill:#A0490D;" d="M1199.557,1289.5l4.313,0.226l13.227,19.051l0.958-18.309l4.577,0.239l-1.385,26.48l-3.896-0.204
				l-13.616-19.603l-0.986,18.838l-4.577-0.239L1199.557,1289.5z"/>
			<path style="fill:#A0490D;" d="M1229.438,1291.063l19.633,1.027l-0.218,4.161l-14.98-0.784l-0.36,6.885l13.277,0.695
				l-0.218,4.161l-13.277-0.695l-0.372,7.112l15.169,0.793l-0.218,4.161l-19.822-1.037L1229.438,1291.063z"/>
			<path style="fill:#A0490D;" d="M1266.13,1292.983l9.873,0.517c8.323,0.436,13.773,6.448,13.379,13.977
				c-0.39,7.451-6.442,12.938-14.765,12.503l-9.873-0.517L1266.13,1292.983z M1274.839,1315.742
				c5.561,0.291,9.388-3.264,9.663-8.521c0.271-5.183-3.161-9.193-8.721-9.484l-5.22-0.272l-0.942,18.006L1274.839,1315.742z"/>
			<path style="fill:#A0490D;" d="M1293.844,1307.709c0.39-7.451,6.466-13.393,14.599-12.967s13.484,6.889,13.091,14.416
				c-0.39,7.452-6.467,13.393-14.6,12.968C1298.802,1321.7,1293.45,1315.237,1293.844,1307.709z M1316.654,1308.903
				c0.27-5.145-3.252-9.615-8.51-9.891c-5.259-0.275-9.147,3.732-9.42,8.952c-0.269,5.145,3.252,9.615,8.51,9.891
				C1312.492,1318.13,1316.381,1314.123,1316.654,1308.903z"/>
			<path style="fill:#A0490D;" d="M1339.209,1296.808l4.313,0.226l13.228,19.051l0.958-18.309l4.577,0.239l-1.386,26.479
				l-3.896-0.204l-13.616-19.603l-0.985,18.839l-4.577-0.239L1339.209,1296.808z"/>
			<path style="fill:#A0490D;" d="M1367.226,1311.549c0.39-7.451,6.467-13.393,14.6-12.967c8.134,0.426,13.484,6.889,13.091,14.416
				c-0.391,7.452-6.467,13.393-14.6,12.968C1372.184,1325.54,1366.832,1319.077,1367.226,1311.549z M1390.036,1312.742
				c0.27-5.145-3.253-9.615-8.511-9.89c-5.258-0.275-9.146,3.731-9.42,8.952c-0.269,5.145,3.252,9.615,8.51,9.89
				C1385.874,1321.97,1389.763,1317.963,1390.036,1312.742z"/>
			<path style="fill:#A0490D;" d="M1406.086,1304.631l-8.397-0.439l0.226-4.313l21.486,1.124l-0.226,4.313l-8.397-0.439
				l-1.16,22.167l-4.691-0.245L1406.086,1304.631z"/>
			<path style="fill:#A0490D;" d="M1433.799,1315.032c0.394-7.527,6.353-13.398,14.372-12.979c4.88,0.255,7.741,2.111,10.149,4.665
				l-3.168,3.286c-2.017-2.078-4.217-3.521-7.243-3.679c-5.068-0.266-8.956,3.704-9.23,8.962c-0.271,5.183,3.177,9.611,8.245,9.876
				c3.253,0.17,5.403-1.045,7.783-3.044l2.83,3.183c-2.911,2.73-6.032,4.388-10.988,4.128
				C1438.832,1329.027,1433.396,1322.712,1433.799,1315.032z"/>
			<path style="fill:#A0490D;" d="M1463.579,1303.314l11.803,0.618c6.204,0.324,9.661,3.843,9.395,8.95
				c-0.229,4.35-2.975,6.823-6.737,7.688l6.625,10.398l-5.485-0.286l-6.099-9.575l-5.75-0.301l-0.483,9.23l-4.653-0.244
				L1463.579,1303.314z M1474.354,1317.041c3.329,0.174,5.538-1.455,5.683-4.217c0.148-2.837-1.813-4.495-5.255-4.675l-6.771-0.354
				l-0.466,8.89L1474.354,1317.041z"/>
			<path style="fill:#A0490D;" d="M1489.062,1317.924c0.391-7.451,6.467-13.393,14.6-12.967s13.484,6.889,13.091,14.416
				c-0.39,7.452-6.467,13.393-14.6,12.968C1494.02,1331.915,1488.668,1325.452,1489.062,1317.924z M1511.872,1319.117
				c0.27-5.145-3.252-9.615-8.51-9.89c-5.258-0.275-9.147,3.731-9.42,8.952c-0.27,5.145,3.252,9.615,8.51,9.89
				C1507.71,1328.345,1511.6,1324.338,1511.872,1319.117z"/>
			<path style="fill:#A0490D;" d="M1520.117,1328.956l2.974-3.183c2.42,2.327,4.889,3.708,8.18,3.88
				c2.875,0.15,4.761-1.078,4.869-3.159c0.099-1.891-0.907-2.968-5.763-4.397c-5.567-1.619-8.658-3.45-8.398-8.405
				c0.237-4.539,4.185-7.481,9.442-7.206c3.858,0.202,6.861,1.535,9.435,3.831l-2.682,3.388c-2.29-1.902-4.623-2.973-7.044-3.1
				c-2.725-0.143-4.386,1.174-4.481,2.989c-0.106,2.043,1.057,3.015,6.063,4.49c5.527,1.654,8.335,3.812,8.102,8.275
				c-0.26,4.955-4.311,7.702-9.871,7.412C1526.894,1333.56,1523.146,1331.959,1520.117,1328.956z"/>
			<path style="fill:#A0490D;" d="M1543.948,1330.203l2.974-3.183c2.419,2.327,4.889,3.708,8.18,3.88
				c2.875,0.15,4.76-1.078,4.869-3.159c0.099-1.892-0.907-2.968-5.764-4.397c-5.566-1.619-8.657-3.45-8.397-8.405
				c0.237-4.54,4.185-7.481,9.442-7.206c3.858,0.201,6.861,1.535,9.434,3.831l-2.68,3.388c-2.291-1.902-4.624-2.973-7.046-3.1
				c-2.724-0.143-4.386,1.174-4.48,2.989c-0.106,2.043,1.057,3.015,6.062,4.49c5.528,1.654,8.336,3.812,8.102,8.275
				c-0.259,4.955-4.31,7.702-9.87,7.411C1550.725,1334.807,1546.978,1333.207,1543.948,1330.203z"/>
		</g>
	</g>
	<g>
		<polygon style="fill:#ED7D2B;" points="2288.069,1008 2184.33,1016.611 1988.292,1032.892 1812.386,1047.504 1610.771,1064.244 
			1434.876,1078.846 277.214,1174.974 271.408,1105.024 342.253,1099.138 518.149,1084.537 709.738,1068.625 885.633,1054.023 
			1088.374,1037.191 1264.27,1022.578 1459.491,1006.367 1635.387,991.766 1837.013,975.026 2012.907,960.413 2208.946,944.144 
			2282.264,938.051 		"/>
		<g style="opacity:0.6;">
			<polygon style="fill:#FFA766;" points="1635.387,991.766 1610.771,1064.244 1610.702,1064.439 1434.842,1078.938 
				1434.876,1078.846 1459.491,1006.367 			"/>
			<polygon style="fill:#FFA766;" points="2012.907,960.413 1988.292,1032.892 1988.143,1033.316 1812.282,1047.814 
				1812.386,1047.504 1837.013,975.026 			"/>
			<polygon style="fill:#FFA766;" points="2288.069,1008 2184.33,1016.611 2208.946,944.144 2282.264,938.051 			"/>
			<polygon style="fill:#FFA766;" points="1264.27,1022.578 1239.666,1095.022 1063.805,1109.52 1088.374,1037.191 			"/>
			<polygon style="fill:#FFA766;" points="885.633,1054.023 861.109,1126.226 685.248,1140.724 709.738,1068.625 			"/>
			<polygon style="fill:#FFA766;" points="518.149,1084.537 493.694,1156.521 317.833,1171.019 342.253,1099.138 			"/>
		</g>
		<g>
			<g>
				<path style="fill:#AA5115;" d="M1189.573,1064.25c-0.616-7.833,4.744-14.709,13.089-15.365
					c5.077-0.399,8.286,1.131,11.121,3.442l-2.828,3.826c-2.365-1.874-4.835-3.065-7.984-2.818
					c-5.273,0.415-8.751,5.045-8.321,10.516c0.424,5.393,4.589,9.5,9.862,9.086c3.385-0.267,5.442-1.813,7.63-4.204l3.357,2.904
					c-2.638,3.218-5.638,5.354-10.794,5.76C1196.676,1078.027,1190.201,1072.24,1189.573,1064.25z"/>
				<path style="fill:#AA5115;" d="M1218.756,1048.095l12.28-0.966c6.455-0.507,10.506,2.659,10.923,7.973
					c0.356,4.526-2.146,7.456-5.917,8.861l8.259,9.846l-5.708,0.448l-7.604-9.065l-5.983,0.471l0.755,9.604l-4.841,0.381
					L1218.756,1048.095z M1231.755,1060.814c3.464-0.271,5.526-2.256,5.3-5.129c-0.232-2.952-2.484-4.398-6.066-4.117l-7.046,0.554
					l0.728,9.25L1231.755,1060.814z"/>
				<path style="fill:#AA5115;" d="M1247.486,1045.836l4.841-0.381l2.166,27.552l-4.841,0.381L1247.486,1045.836z"/>
				<path style="fill:#AA5115;" d="M1259.687,1044.877l5.156-0.405l9.408,12.368l7.359-13.687l5.156-0.405l2.166,27.552l-4.841,0.38
					l-1.554-19.758l-7.677,13.672l-0.158,0.013l-9.634-12.232l1.547,19.68l-4.763,0.375L1259.687,1044.877z"/>
				<path style="fill:#AA5115;" d="M1293.849,1042.191l20.427-1.606l0.341,4.329l-15.587,1.226l0.563,7.164l13.815-1.087l0.34,4.33
					l-13.815,1.086l0.582,7.399l15.783-1.24l0.341,4.329l-20.625,1.621L1293.849,1042.191z"/>
				<path style="fill:#AA5115;" d="M1332.026,1062.872l2.64-3.692c2.816,2.075,5.556,3.167,8.98,2.897
					c2.991-0.235,4.771-1.761,4.602-3.926c-0.154-1.968-1.34-2.944-6.553-3.762c-5.973-0.917-9.415-2.389-9.82-7.545
					c-0.371-4.723,3.308-8.3,8.778-8.729c4.015-0.315,7.299,0.654,10.27,2.678l-2.31,3.864c-2.625-1.654-5.183-2.443-7.701-2.245
					c-2.834,0.223-4.373,1.809-4.224,3.697c0.167,2.126,1.5,2.972,6.874,3.816c5.937,0.959,9.131,2.807,9.496,7.451
					c0.405,5.156-3.407,8.545-9.193,9C1339.654,1066.708,1335.564,1065.564,1332.026,1062.872z"/>
				<path style="fill:#AA5115;" d="M1357.077,1051.081c-0.616-7.833,4.744-14.709,13.089-15.365
					c5.077-0.399,8.286,1.131,11.121,3.442l-2.827,3.826c-2.365-1.873-4.835-3.065-7.983-2.818
					c-5.274,0.415-8.752,5.045-8.322,10.516c0.424,5.393,4.589,9.501,9.862,9.086c3.386-0.266,5.442-1.813,7.63-4.203l3.357,2.903
					c-2.639,3.218-5.639,5.354-10.795,5.76C1364.18,1064.859,1357.705,1059.071,1357.077,1051.081z"/>
				<path style="fill:#AA5115;" d="M1386.535,1034.904l4.841-0.381l2.166,27.552l-4.841,0.381L1386.535,1034.904z"/>
				<path style="fill:#AA5115;" d="M1398.735,1033.945l4.487-0.353l16.257,17.89l-1.497-19.051l4.763-0.374l2.166,27.552
					l-4.055,0.318l-16.733-18.406l1.541,19.601l-4.763,0.375L1398.735,1033.945z"/>
				<path style="fill:#AA5115;" d="M1429.827,1031.501l20.428-1.606l0.341,4.33l-15.587,1.225l0.563,7.164l13.815-1.086l0.34,4.329
					l-13.815,1.086l0.582,7.399l15.783-1.24l0.341,4.329l-20.625,1.622L1429.827,1031.501z"/>
				<path style="fill:#AA5115;" d="M1468.004,1028.5l10.272-0.809c8.66-0.681,15.109,4.793,15.725,12.625
					c0.61,7.754-4.898,14.246-13.559,14.927l-10.272,0.808L1468.004,1028.5z M1480.096,1050.835
					c5.786-0.455,9.259-4.648,8.828-10.119c-0.424-5.393-4.515-9.07-10.301-8.616l-5.431,0.428l1.473,18.734L1480.096,1050.835z"/>
				<path style="fill:#AA5115;" d="M1498.645,1039.951c-0.609-7.754,4.862-14.718,13.324-15.384
					c8.463-0.665,14.871,5.286,15.486,13.119c0.61,7.754-4.862,14.719-13.324,15.384S1499.26,1047.784,1498.645,1039.951z
					 M1522.378,1038.086c-0.421-5.354-4.667-9.494-10.138-9.064s-8.945,5.1-8.519,10.531c0.421,5.353,4.667,9.494,10.138,9.063
					C1519.331,1048.187,1522.806,1043.518,1522.378,1038.086z"/>
				<path style="fill:#AA5115;" d="M1544.042,1022.521l4.487-0.353l16.258,17.89l-1.498-19.05l4.763-0.375l2.166,27.552
					l-4.055,0.318l-16.733-18.406l1.541,19.602l-4.763,0.374L1544.042,1022.521z"/>
				<path style="fill:#AA5115;" d="M1574.997,1033.949c-0.609-7.754,4.863-14.719,13.325-15.384
					c8.463-0.666,14.87,5.286,15.486,13.118c0.609,7.754-4.863,14.719-13.325,15.384S1575.613,1041.781,1574.997,1033.949z
					 M1598.731,1032.083c-0.421-5.353-4.668-9.494-10.139-9.064c-5.471,0.431-8.944,5.1-8.519,10.531
					c0.422,5.353,4.668,9.494,10.139,9.063C1595.684,1042.184,1599.158,1037.515,1598.731,1032.083z"/>
				<path style="fill:#AA5115;" d="M1614.215,1021.519l-8.738,0.687l-0.353-4.486l22.356-1.758l0.353,4.487l-8.737,0.686
					l1.813,23.065l-4.881,0.384L1614.215,1021.519z"/>
				<path style="fill:#AA5115;" d="M1644.266,1028.503c-0.616-7.832,4.744-14.709,13.089-15.365
					c5.077-0.398,8.286,1.131,11.121,3.442l-2.827,3.826c-2.365-1.873-4.836-3.065-7.984-2.817
					c-5.273,0.414-8.751,5.044-8.321,10.515c0.425,5.393,4.589,9.501,9.862,9.086c3.385-0.266,5.442-1.813,7.63-4.203l3.357,2.904
					c-2.639,3.217-5.639,5.354-10.795,5.759C1651.368,1042.281,1644.894,1036.493,1644.266,1028.503z"/>
				<path style="fill:#AA5115;" d="M1673.448,1012.348l12.28-0.965c6.455-0.508,10.506,2.658,10.924,7.973
					c0.355,4.526-2.146,7.455-5.918,8.861l8.259,9.845l-5.706,0.448l-7.604-9.064l-5.983,0.47l0.755,9.604l-4.841,0.38
					L1673.448,1012.348z M1686.448,1025.068c3.463-0.272,5.524-2.256,5.299-5.13c-0.231-2.951-2.483-4.398-6.065-4.117l-7.046,0.555
					l0.728,9.249L1686.448,1025.068z"/>
				<path style="fill:#AA5115;" d="M1701.767,1023.982c-0.61-7.753,4.862-14.718,13.324-15.384
					c8.463-0.665,14.871,5.286,15.486,13.119c0.609,7.754-4.862,14.719-13.324,15.384
					C1708.79,1037.767,1702.382,1031.815,1701.767,1023.982z M1725.5,1022.116c-0.42-5.353-4.667-9.494-10.138-9.064
					c-5.472,0.43-8.945,5.1-8.519,10.53c0.421,5.354,4.667,9.495,10.138,9.064C1722.453,1032.217,1725.928,1027.549,1725.5,1022.116
					z"/>
				<path style="fill:#AA5115;" d="M1735.357,1031.163l2.641-3.692c2.816,2.075,5.556,3.167,8.979,2.898
					c2.991-0.235,4.772-1.762,4.603-3.927c-0.155-1.968-1.341-2.944-6.553-3.762c-5.973-0.917-9.416-2.389-9.821-7.545
					c-0.371-4.723,3.309-8.299,8.779-8.729c4.015-0.315,7.299,0.654,10.27,2.678l-2.311,3.865c-2.625-1.655-5.182-2.444-7.701-2.246
					c-2.834,0.223-4.372,1.809-4.224,3.698c0.167,2.125,1.501,2.971,6.874,3.815c5.937,0.959,9.132,2.807,9.496,7.451
					c0.406,5.156-3.406,8.545-9.192,9C1742.985,1034.999,1738.896,1033.855,1735.357,1031.163z"/>
				<path style="fill:#AA5115;" d="M1760.153,1029.214l2.641-3.692c2.816,2.075,5.556,3.167,8.979,2.897
					c2.991-0.234,4.772-1.761,4.603-3.926c-0.155-1.968-1.341-2.944-6.554-3.762c-5.973-0.917-9.415-2.389-9.82-7.545
					c-0.371-4.723,3.308-8.3,8.779-8.73c4.015-0.315,7.299,0.654,10.27,2.678l-2.311,3.864c-2.625-1.654-5.182-2.443-7.701-2.245
					c-2.834,0.223-4.372,1.809-4.224,3.698c0.167,2.125,1.501,2.971,6.874,3.815c5.937,0.959,9.131,2.807,9.496,7.451
					c0.405,5.156-3.406,8.545-9.192,9C1767.781,1033.05,1763.691,1031.906,1760.153,1029.214z"/>
			</g>
		</g>
	</g>
	<g>
		<g>
			<path style="fill:#A0490D;" d="M1752.004,1333.912c0.395-7.527,6.354-13.398,14.373-12.979c4.88,0.255,7.741,2.112,10.148,4.666
				l-3.168,3.285c-2.016-2.077-4.216-3.521-7.242-3.679c-5.068-0.266-8.956,3.704-9.231,8.962c-0.271,5.183,3.177,9.611,8.246,9.876
				c3.253,0.171,5.403-1.044,7.783-3.044l2.83,3.183c-2.911,2.73-6.033,4.388-10.988,4.129
				C1757.038,1347.907,1751.603,1341.592,1752.004,1333.912z"/>
			<path style="fill:#A0490D;" d="M1781.785,1322.195l11.803,0.617c6.203,0.324,9.66,3.844,9.394,8.95
				c-0.228,4.351-2.975,6.823-6.737,7.689l6.625,10.398l-5.484-0.287l-6.1-9.575l-5.75-0.301l-0.482,9.23l-4.653-0.243
				L1781.785,1322.195z M1792.561,1335.921c3.328,0.175,5.538-1.455,5.683-4.217c0.148-2.837-1.813-4.495-5.256-4.675l-6.771-0.354
				l-0.466,8.89L1792.561,1335.921z"/>
			<path style="fill:#A0490D;" d="M1809.398,1323.64l4.652,0.243l-1.386,26.479l-4.652-0.243L1809.398,1323.64z"/>
			<path style="fill:#A0490D;" d="M1821.123,1324.253l4.956,0.26l7.402,12.942l8.712-12.1l4.956,0.26l-1.386,26.479l-4.653-0.243
				l0.993-18.99l-9.013,12.046l-0.151-0.008l-7.635-12.841l-0.989,18.914l-4.577-0.24L1821.123,1324.253z"/>
			<path style="fill:#A0490D;" d="M1853.956,1325.972l19.633,1.026l-0.218,4.161l-14.98-0.783l-0.359,6.884l13.277,0.695
				l-0.218,4.161l-13.277-0.695l-0.372,7.112l15.169,0.794l-0.218,4.161l-19.822-1.037L1853.956,1325.972z"/>
			<path style="fill:#A0490D;" d="M1887.686,1350.419l2.974-3.183c2.42,2.327,4.889,3.708,8.18,3.88
				c2.875,0.151,4.76-1.078,4.868-3.159c0.1-1.891-0.906-2.968-5.762-4.397c-5.568-1.619-8.658-3.45-8.398-8.405
				c0.237-4.539,4.185-7.481,9.442-7.206c3.858,0.202,6.861,1.535,9.434,3.831l-2.681,3.388c-2.29-1.902-4.623-2.973-7.045-3.1
				c-2.724-0.143-4.385,1.174-4.48,2.989c-0.107,2.043,1.057,3.015,6.063,4.49c5.527,1.654,8.334,3.812,8.102,8.275
				c-0.26,4.956-4.311,7.703-9.871,7.412C1894.462,1355.022,1890.715,1353.423,1887.686,1350.419z"/>
			<path style="fill:#A0490D;" d="M1912.99,1342.336c0.395-7.527,6.354-13.398,14.373-12.979c4.879,0.255,7.741,2.111,10.148,4.665
				l-3.168,3.286c-2.016-2.078-4.217-3.521-7.242-3.68c-5.069-0.265-8.956,3.705-9.231,8.963c-0.271,5.183,3.177,9.61,8.245,9.876
				c3.254,0.17,5.403-1.045,7.784-3.044l2.83,3.182c-2.912,2.73-6.033,4.389-10.989,4.129
				C1918.023,1356.331,1912.589,1350.016,1912.99,1342.336z"/>
			<path style="fill:#A0490D;" d="M1943.035,1330.633l4.653,0.243l-1.386,26.479l-4.652-0.244L1943.035,1330.633z"/>
			<path style="fill:#A0490D;" d="M1954.762,1331.246l4.313,0.226l13.227,19.051l0.958-18.309l4.577,0.239l-1.385,26.479
				l-3.896-0.204l-13.616-19.603l-0.985,18.839l-4.577-0.239L1954.762,1331.246z"/>
			<path style="fill:#A0490D;" d="M1984.644,1332.81l19.633,1.027l-0.218,4.161l-14.979-0.784l-0.36,6.885l13.277,0.694
				l-0.218,4.161l-13.277-0.694l-0.372,7.111l15.169,0.794l-0.218,4.161l-19.822-1.037L1984.644,1332.81z"/>
			<path style="fill:#A0490D;" d="M2021.335,1334.729l9.872,0.517c8.323,0.436,13.773,6.447,13.379,13.976
				c-0.39,7.452-6.441,12.938-14.764,12.504l-9.873-0.517L2021.335,1334.729z M2030.043,1357.488
				c5.562,0.291,9.389-3.264,9.664-8.521c0.271-5.183-3.16-9.193-8.722-9.484l-5.22-0.273l-0.942,18.006L2030.043,1357.488z"/>
			<path style="fill:#A0490D;" d="M2049.049,1349.455c0.39-7.452,6.467-13.393,14.6-12.967s13.484,6.888,13.09,14.416
				c-0.389,7.452-6.466,13.393-14.599,12.967C2054.007,1363.446,2048.655,1356.982,2049.049,1349.455z M2071.859,1350.648
				c0.27-5.145-3.253-9.615-8.51-9.89c-5.259-0.275-9.147,3.731-9.42,8.952c-0.27,5.145,3.252,9.614,8.509,9.89
				C2067.697,1359.876,2071.586,1355.869,2071.859,1350.648z"/>
			<path style="fill:#A0490D;" d="M2094.414,1338.553l4.312,0.226l13.229,19.051l0.958-18.309l4.576,0.24l-1.385,26.479
				l-3.896-0.204l-13.616-19.603l-0.985,18.838l-4.577-0.239L2094.414,1338.553z"/>
			<path style="fill:#A0490D;" d="M2122.431,1353.295c0.39-7.452,6.467-13.393,14.6-12.967c8.133,0.425,13.484,6.888,13.091,14.416
				c-0.391,7.451-6.467,13.393-14.6,12.967S2122.037,1360.822,2122.431,1353.295z M2145.241,1354.488
				c0.269-5.145-3.253-9.615-8.511-9.891c-5.258-0.274-9.146,3.732-9.42,8.952c-0.27,5.146,3.252,9.615,8.51,9.891
				C2141.079,1363.716,2144.968,1359.709,2145.241,1354.488z"/>
			<path style="fill:#A0490D;" d="M2161.291,1346.376l-8.398-0.439l0.227-4.312l21.486,1.124l-0.227,4.313l-8.397-0.439
				l-1.159,22.167l-4.691-0.246L2161.291,1346.376z"/>
			<path style="fill:#A0490D;" d="M2189.004,1356.778c0.394-7.528,6.353-13.398,14.372-12.979c4.88,0.256,7.741,2.112,10.148,4.666
				l-3.168,3.286c-2.016-2.078-4.216-3.521-7.242-3.68c-5.068-0.265-8.956,3.704-9.23,8.962c-0.271,5.183,3.177,9.611,8.245,9.877
				c3.253,0.17,5.403-1.045,7.783-3.045l2.83,3.183c-2.912,2.73-6.033,4.388-10.988,4.129
				C2194.037,1370.772,2188.602,1364.457,2189.004,1356.778z"/>
			<path style="fill:#A0490D;" d="M2218.784,1345.061l11.802,0.617c6.204,0.325,9.662,3.844,9.395,8.95
				c-0.228,4.351-2.975,6.824-6.736,7.689l6.624,10.398l-5.484-0.287l-6.1-9.574l-5.75-0.301l-0.482,9.229l-4.653-0.243
				L2218.784,1345.061z M2229.559,1358.786c3.33,0.175,5.539-1.454,5.684-4.216c0.148-2.837-1.813-4.495-5.255-4.676l-6.771-0.354
				l-0.466,8.89L2229.559,1358.786z"/>
			<path style="fill:#A0490D;" d="M2244.267,1359.67c0.39-7.452,6.467-13.393,14.6-12.967c8.133,0.425,13.484,6.888,13.091,14.416
				c-0.391,7.451-6.467,13.393-14.6,12.967S2243.873,1367.197,2244.267,1359.67z M2267.077,1360.863
				c0.27-5.145-3.253-9.615-8.511-9.891c-5.258-0.274-9.146,3.732-9.42,8.952c-0.27,5.146,3.252,9.615,8.51,9.891
				C2262.915,1370.091,2266.804,1366.084,2267.077,1360.863z"/>
			<path style="fill:#A0490D;" d="M2275.322,1370.702l2.974-3.183c2.419,2.326,4.889,3.707,8.18,3.88
				c2.875,0.15,4.76-1.079,4.868-3.159c0.1-1.892-0.906-2.969-5.762-4.398c-5.567-1.619-8.658-3.449-8.398-8.404
				c0.237-4.54,4.185-7.481,9.442-7.207c3.858,0.202,6.861,1.535,9.435,3.832l-2.682,3.388c-2.29-1.903-4.623-2.974-7.045-3.101
				c-2.723-0.142-4.385,1.175-4.48,2.99c-0.106,2.043,1.057,3.014,6.063,4.49c5.527,1.654,8.334,3.812,8.102,8.275
				c-0.26,4.955-4.311,7.702-9.871,7.411C2282.1,1375.305,2278.352,1373.705,2275.322,1370.702z"/>
			<path style="fill:#A0490D;" d="M2299.153,1371.949l2.974-3.183c2.419,2.326,4.889,3.708,8.18,3.88
				c2.875,0.15,4.76-1.079,4.869-3.159c0.099-1.892-0.907-2.969-5.764-4.398c-5.566-1.619-8.657-3.45-8.398-8.405
				c0.238-4.539,4.186-7.48,9.443-7.206c3.858,0.202,6.861,1.535,9.434,3.832l-2.68,3.387c-2.291-1.902-4.625-2.973-7.046-3.1
				c-2.724-0.143-4.386,1.175-4.48,2.99c-0.106,2.043,1.057,3.014,6.062,4.489c5.528,1.655,8.336,3.813,8.102,8.276
				c-0.259,4.955-4.31,7.702-9.87,7.411C2305.93,1376.552,2302.182,1374.952,2299.153,1371.949z"/>
		</g>
	</g>
	<g>
		<path style="fill:#2B478B;" d="M805.321,553.586c0,0,58.629,10.294,71.884,44.9c13.255,34.605,77.337,825.297,77.337,825.297
			s-126.523,33.81-206.12,23.261S805.321,553.586,805.321,553.586z"/>
		<path style="fill:#172A49;" d="M892.59,1654.218c0.201,10.009,1.461,19.482,5.092,23.221h145.531
			c0-8.974-6.536-19.997-21.476-22.423c-16.978-2.746-43.993-4.107-59.443-20.441c-5.507-5.802-9.608-12.649-11.403-20.648
			c-6.847-30.484-56.612,9.34-56.612,9.34S892.268,1639.317,892.59,1654.218z"/>
		<path style="fill:#172A49;" d="M670.652,1669.296c0.201,10.01,1.46,19.483,5.092,23.222h145.531
			c0.656-5.893,1.275-18.274-21.167-21.215c-17.052-2.234-44.303-5.316-59.752-21.65c-5.507-5.802-9.608-12.648-11.403-20.648
			c-6.847-30.483-56.613,9.34-56.613,9.34S670.331,1654.396,670.652,1669.296z"/>
		<path style="fill:#172A49;" d="M955.262,1639.396c-16.265,5.186-47.347,21.025-67.095,13.574
			c-12.759-4.809-84.09-211.145-88.717-301.396c-0.341-6.563-1.631-15.718-3.652-26.882c-4.225-23.29-11.615-55.298-20.125-90.616
			c-22.828-94.634-53.703-213.021-53.033-250.859c1.035-58.731,155.617-6.148,155.617-6.148s6.386,30.041,13.783,107.798
			c13.118,137.908,37.691,376.278,73.022,538.688C966.56,1630.447,962.007,1637.253,955.262,1639.396z"/>
		<path style="fill:#233862;" d="M834.504,983.422l-91.977,666.624c0,0-40.392,9.74-71.808,1.947c0,0-26.928-354.541-24.684-440.254
			c2.244-85.714-19.327-229.354,4.922-245.195C675.207,950.704,834.504,983.422,834.504,983.422z"/>
		<path style="fill:#E9F3FE;" d="M639.332,584.123c0,0,96.659-62.501,165.989-30.537c11.048,5.093,23.65,19.307,32.673,29.249
			c25.06,27.613,40.264,394.235,40.264,394.235s-89.788,39.147-223.473-23.909L639.332,584.123z"/>
		<path style="fill:#2B478B;" d="M810.821,552.001c0,0,80.056,15.993,93.31,46.806C917.385,629.62,979.667,832.811,979.667,855
			s-105.26,53.121-117.333,17.333C852.308,842.616,810.821,552.001,810.821,552.001z"/>
		<g>
			<path style="fill:#FFB27D;" d="M790.498,582.559c-21.362,4.189-52.742-0.276-75.716-15.419
				c10.372-24.775,14.624-44.337,16.137-56.995c0.088-0.673,0.155-1.325,0.221-1.955c0.685-6.561,0.585-11.012,0.265-13.056h55.227
				c0,0,15.099,6.904,15.099,11.675c0,2.551,0.023,4.993,0.067,7.323c0.111,6.351,0.365,11.896,0.696,16.656
				c1.049,15.497,2.827,22.798,2.827,22.798S812.07,578.328,790.498,582.559z"/>
			<path style="fill:#E2915A;" d="M802.494,530.789c-41.84,8.085-66.129-14.779-71.575-20.644c-0.773-0.839-1.171-1.336-1.171-1.336
				c0.442-0.221,0.906-0.419,1.392-0.619c15.574-6.307,50.919-1.292,70.657,5.943C801.909,520.483,802.163,526.028,802.494,530.789z
				"/>
			<path style="fill:#FFB27D;" d="M717.253,486.056c7.476,40.24,59.399,38.918,81.838,36.389c6.315-0.703,10.287-1.509,10.287-1.509
				c7.12-1.902,11.093-13.116,12.938-27.807c3.663-29.072-0.965-71.748-5.875-82.663c-7.392-16.424-21.314-34.188-73.603-21.371
				C690.542,401.923,707.659,434.499,717.253,486.056z"/>
			<path style="fill:#233862;" d="M818.388,388.021c-7.146-9.895-22.299-21.984-36.062-29.429
				c-29.566-15.996-67.407,0.503-67.565,0.573c-42.709,18.777-53.862,51.453-31.219,102.354
				c23.944,53.825,46.742,47.768,46.742,47.768s-4.839-3.011-4.401-19.786c0.025-0.954,0.063-1.751,0.107-2.436
				c0.22-3.438-0.992-6.885-3.562-9.179c-5.305-4.735-7.891-19.054-3.448-23.041c5.359-4.81,12.89,1.032,15.295,5.525
				c2.102,3.173,5.867,4.285,9.373,2.068c13.293-8.403,4.658-25.211,17.36-35.494c12.702-10.283,38.477-1.649,57.532-9.844
				C843.482,407.809,823.773,395.477,818.388,388.021z"/>
		</g>
		<path style="fill:#2B478B;" d="M746.055,1474.988c-67.59,7.541-120.525-3.491-132.263-7.429
			c-1.238-0.421,1.35-381.942,6.476-514.398c0.52-13.682,1.052-27.413,1.585-41.045c0.235-5.77,0.458-11.515,0.681-17.247
			c4.656-117.165,9.261-222.965,10.227-228.66c2.229-12.889,4.296-23.884,6.562-33.405c6.624-27.759,14.833-42.976,32.749-56.063
			c1.746-1.325,16.071-8.556,28.712-14.833c10.475-5.2,19.773-9.744,19.773-9.744c0.013,0,0.013,0,0.013,0
			c4.16,2.043,2.018,17.124,7.255,30.52c9.621,24.701,26.434,122.911,28.948,140.975c0.706,5.089,23.748,112.164,23.748,112.164
			c0.21,4.172,0.421,8.444,0.631,12.814c0.223,4.915,0.446,9.967,0.681,15.118C790.859,1073.149,746.501,1469.17,746.055,1474.988z"
			/>
		<path style="fill:#203B72;" d="M781.833,863.754c-41.342-1.882-152.564-7.255-154.805-10.858
			c-2.761-4.42,54.652-139.464,54.652-139.464c-0.062,0.273-3.355,118.478,85.568,132.84c5.113,0.83,9.732,1.622,13.904,2.365
			C781.375,853.552,781.598,858.604,781.833,863.754z"/>
		<path style="fill:#203B72;" d="M756.81,897.011c0,0-1.671,1.176-4.878,3.244c-0.049,0.025-0.111,0.074-0.161,0.099
			c-13.57,8.667-53.822,32.266-112.448,48.102c-6.154,1.659-12.505,3.244-19.055,4.705c0.52-13.682,1.052-27.413,1.585-41.045
			c0.235-5.77,0.458-11.515,0.681-17.247c5.819-2.278,11.453-4.445,16.789-6.451c24.082-9.15,41.936-15.341,41.936-15.341
			l71.268,22.571L756.81,897.011z"/>
		<g>
			<path style="fill:#D9E9F9;" d="M707.998,555.904c-0.2-4.029,18.88-9.594,18.88-9.594s21.838,30.28,57.818,30.802
				c0,0-10.253,19.956-22.337,25.123C762.36,602.235,709.187,579.826,707.998,555.904z"/>
			<path style="fill:#D9E9F9;" d="M784.697,576.405c0,0,19.061-11.299,19.127-23.55c0,0,12.31-1.541,17.687,4.428
				c0,0,4.519,20.994-1.475,33.188C820.036,590.471,792.588,586.291,784.697,576.405z"/>
			<path style="fill:#BA4C43;" d="M771.758,574.587l25.847-6.194c0,0,3.376,0.293,3.283,4.503
				c-0.093,4.21-7.279,16.512-10.462,17.495C787.243,591.375,765.644,583.106,771.758,574.587z"/>
			<path style="fill:#E9F3FE;" d="M711.009,553.825c-0.2-4.028,12.714-12.328,12.714-12.328s24.994,29.214,60.974,29.736
				c0,0-10.253,19.956-22.337,25.123C762.36,596.356,712.197,577.747,711.009,553.825z"/>
			<path style="fill:#E9F3FE;" d="M784.697,571.233c0,0,19.082-14.208,19.147-26.458c0,0,11.832,9.109,17.209,15.078
				c0,0,4.976,13.253-1.018,25.446C820.036,585.3,792.588,581.119,784.697,571.233z"/>
			<g>
				<path style="fill:#C65447;" d="M838.818,926.34c-0.416,31.885-16.463,45.848-16.463,45.848
					c-6.669-1.139-30.616-43.211-29.961-50.723c1.489-16.732-8.905-338.786-8.905-338.786l9.289,0.485
					c0,0,45.955,188.51,46.887,210.218C839.665,793.382,839.535,871.454,838.818,926.34z"/>
			</g>
		</g>
		<path style="fill:#203B72;" d="M697.002,552.676l5.858,157.672l26.888,7.429l-8.124,18.572l58.897,99.477l-55.888-296.233
			C724.633,539.593,708.187,542.135,697.002,552.676z"/>
		<path style="fill:#FFB27D;" d="M765.411,840.757c0,0,13.442-9.38,17.569-15.158c4.127-5.778,5.982,0.278,5.984,2.476
			c0.011,9.39-6.861,16.818-7.944,17.747C779.937,846.75,765.411,840.757,765.411,840.757z"/>
		<g>
			<polygon style="fill:#ED7D2B;" points="828.392,867.421 824.856,871.381 741.633,801.729 748.851,793.643 			"/>
			
				<rect x="740.562" y="791.688" transform="matrix(0.666 -0.746 0.746 0.666 -345.1902 819.6107)" style="fill:#C15F1E;" width="4.114" height="7.145"/>
		</g>
		<path style="fill:#203B72;" d="M815.43,572.296l66.276,230.644l10.954-81.448l-13.001-13.619l14.88-14.238l-51.559-133.04
			c0,0-16.407-8.432-35.17-12.672L815.43,572.296z"/>
		<path style="fill:#FFB27D;" d="M756.81,844.008c0,0,35.796-15.623,54.766-6.543c18.97,9.08,27.637,33.871,21.033,37.571
			c-6.603,3.7-31.366-6.791-35.081-1.958c-3.714,4.833-12.381,9.786-28.064,9.373c-15.683-0.413-18.985-3.302-18.985-3.302
			L756.81,844.008z"/>
		<path style="fill:#2B478B;" d="M756.81,897.011c0,0-72.839,14.174-103.112,16.108c-23.834,1.523-86.965-3.966-94.718-12.519
			c-43.954-48.484,36.944-296.47,57.78-316.548c21.541-20.756,57.718-26.439,80.242-31.376c0.011,0,0.702,18.897,0.702,18.897
			s3.089,38.095,1.598,43.01c-14.105,46.192-28.893,103.282-40.888,154.477c-4.396,18.733-9.253,37.995-7.812,41.887
			c3.096,8.357,110.107,31.418,110.262,31.44c0,0,2.937,13.588,2.583,27.377C762.964,888.641,756.81,897.011,756.81,897.011z"/>
		<g>
			<polygon style="fill:#ED7D2B;" points="921.437,953.493 792.211,953.493 829.432,766.065 958.657,766.065 			"/>
			<path style="fill:#AFCDFB;" d="M829.432,766.065c0,0-1.236-17.076,5.072-18.985c6.309-1.909,24.726,2.115,26.893,18.985H829.432z
				"/>
			<path style="fill:#FFFFFF;" d="M837.021,746.645c0,0,17.497-0.628,24.376,19.42c10.834,31.573-6.5,68.098,14.038,93.714h114.007
				c0,0-8.254-34.902-7.635-67.713c0.619-32.811-6.058-45.192-23.149-45.811C941.566,745.636,837.021,746.645,837.021,746.645z"/>
		</g>
	</g>
</g>
</svg>
