<svg width="103" height="142" viewBox="0 0 103 142" fill="none" xmlns="http://www.w3.org/2000/svg">
<path d="M0.8 124.2C0.8 116.467 2.2 109.8 5 104.2C7.93333 98.4667 12.7333 93.4 19.4 89L69 56.8C71.6667 55.0667 73.7333 52.8667 75.2 50.2C76.8 47.5333 77.6 44.8 77.6 42V35.6C77.6 31.3333 76 27.8667 72.8 25.2C69.7333 22.4 65.7333 21 60.8 21H42.4C36.5333 21 31.9333 23.1333 28.6 27.4C25.2667 31.5333 23.6 37.2667 23.6 44.6H0.2C0.2 30.8667 3.93333 20.0667 11.4 12.2C18.8667 4.33333 29.0667 0.399999 42 0.399999H60.8C68.6667 0.399999 75.6667 1.86666 81.8 4.79999C87.9333 7.73333 92.6667 11.8667 96 17.2C99.3333 22.5333 101 28.6667 101 35.6V42C101 48.6667 99.5333 54.5333 96.6 59.6C93.8 64.6667 89.3333 69.0667 83.2 72.8L35 103.4C31.2667 105.8 28.5333 108.4 26.8 111.2C25.2 113.867 24.4 117.333 24.4 121.6H102.2V142H0.8V124.2Z" fill="url(#paint0_linear_125_131)" fill-opacity="0.51"/>
<defs>
<linearGradient id="paint0_linear_125_131" x1="57.5" y1="-58" x2="58.3507" y2="100.495" gradientUnits="userSpaceOnUse">
<stop stop-color="white"/>
<stop offset="1" stop-color="white" stop-opacity="0"/>
</linearGradient>
</defs>
</svg>
