<?xml version="1.0" encoding="utf-8"?>
<!-- Generator: Adobe Illustrator 27.5.0, SVG Export Plug-In . SVG Version: 6.00 Build 0)  -->
<svg version="1.1" xmlns="http://www.w3.org/2000/svg" xmlns:xlink="http://www.w3.org/1999/xlink" x="0px" y="0px"
	 viewBox="0 0 2500 2500" style="enable-background:new 0 0 2500 2500;" xml:space="preserve">
<g id="Background">
	<rect style="fill: #131417;" width="2500" height="2500"/>
</g>
<g id="Illustration">
	<g id="Military_drone_1_">
		<circle style="fill:#F2E6DC;" cx="1250" cy="1249.744" r="914.744"/>
		<g>
			<path style="opacity:0.3;fill:#363E44;" d="M1356.8,596.589c-11.856,1.21-23.289-0.588-33.482-4.728
				c-11.715,29.493-39.104,57.455-74.274,61.045c-41.81,4.268-80.769-24.954-94.419-60.721c-7.651,4.141-16.365,6.31-25.575,7.848
				c-83.036,13.867-105.395-69.832-45.052-102.379c-22.578-75.982,28.628-99.465,53.192-101.972
				c28.173-2.876,62.999,14.949,75.326,37.311c10.88-14.742,28.138-25.143,48.4-27.211c36.994-3.776,69.943,21.616,73.594,56.715
				c0.296,2.85,0.371,5.672,0.273,8.462c2.862-0.659,5.791-1.167,8.795-1.474c36.994-3.776,69.943,21.616,73.594,56.715
				C1420.824,561.299,1393.794,592.813,1356.8,596.589z"/>
			<path style="opacity:0.3;fill:#363E44;" d="M422.475,567.071c11.53-2.862,23.129-2.457,33.88,0.612
				c6.818-33.028,31.303-60.657,65.506-69.147c40.662-10.093,82.002,10.094,101.285,46.457c6.897-5.433,14.991-9.521,24.026-11.763
				c34.696-8.612,70.062,13.067,79.455,48.495c7.887-5.588,16.892-9.829,26.803-12.289c43.742-10.857,88.353,16.784,99.643,61.738
				c11.29,44.954-15.017,90.197-58.759,101.055c-31.919,7.923-64.286-4.67-83.846-29.516c-6.39,22.519-23.943,40.924-47.831,46.853
				c-27.399,6.801-55.2-4.775-71.008-27.009c-8.377,17.175-23.764,30.56-43.47,35.452c-35.978,8.93-72.672-13.805-81.958-50.78
				c-0.754-3.002-1.284-6.004-1.638-8.995c-2.724,1.083-5.539,2.013-8.461,2.738c-35.978,8.93-72.671-13.805-81.958-50.78
				C364.859,613.215,386.497,576.001,422.475,567.071z"/>
			<path style="opacity:0.21;fill:#363E44;" d="M1371.155,508.366c12.484-5.788,25.806-7.793,38.782-6.518
				c0.092-39.862,21.589-77.216,58.622-94.387c44.027-20.413,95.871-5.76,126.323,32.412c6.603-7.79,14.883-14.271,24.665-18.806
				c37.567-17.418,82.945,0.246,101.9,39.44c7.695-8.181,16.978-15.034,27.71-20.01c47.361-21.959,104.671,0.665,128.006,50.531
				c23.335,49.867,3.858,108.093-43.504,130.052c-34.561,16.024-74.404,8.287-102.493-16.432
				c-2.048,27.55-17.785,52.698-43.651,64.69c-29.666,13.755-64.066,6.225-87.268-16.256c-5.558,21.759-19.993,40.609-41.329,50.502
				c-38.955,18.062-86.093-0.547-105.286-41.563c-1.558-3.33-2.861-6.708-3.961-10.11c-2.854,1.84-5.849,3.522-9.012,4.989
				c-38.955,18.062-86.094-0.547-105.286-41.563C1316.18,574.32,1332.2,526.428,1371.155,508.366z"/>
			<path style="opacity:0.21;fill:#363E44;" d="M2066.081,832.186c-10.804,2.293-21.548,1.636-31.406-1.404
				c-7.57,29.634-31.325,53.952-63.375,60.753c-38.101,8.086-75.691-11.17-92.209-44.47c-6.603,4.729-14.266,8.215-22.732,10.012
				c-32.511,6.9-64.502-13.553-71.881-45.761c-7.527,4.845-16.04,8.445-25.328,10.416c-40.987,8.698-81.331-17.367-90.11-58.219
				c-8.779-40.851,17.33-81.019,58.317-89.717c29.909-6.347,56.635-2.571,73.844,20.342c6.776-20.161,26.579-27.927,48.963-32.678
				c25.674-5.448,51.028,5.697,64.854,26.158c8.418-15.288,23.197-26.981,41.662-30.9c33.713-7.154,66.896,14.285,74.117,47.886
				c0.586,2.728,0.965,5.451,1.181,8.158c2.568-0.909,5.214-1.677,7.952-2.258c33.713-7.154,66.896,14.285,74.117,47.886
				S2099.794,825.031,2066.081,832.186z"/>
		</g>
		<g>
			<g>
				<polygon style="fill:#FFFFFF;" points="451.695,1873 451.695,859.945 2028.551,859.945 2028.551,1088.238 2028.551,1644.696 
					2028.551,1873 				"/>
				<path style="fill:#363E44;" d="M2010.057,1945.334H485.177c-71.02,0-128.798-57.779-128.798-128.8V909.404
					c0-71.021,57.779-128.799,128.798-128.799h1524.88c71.02,0,128.798,57.779,128.798,128.799v907.131
					C2138.856,1887.556,2081.077,1945.334,2010.057,1945.334z M485.177,785.013c-68.589,0-124.39,55.803-124.39,124.391v907.131
					c0,68.589,55.801,124.391,124.39,124.391h1524.88c68.589,0,124.39-55.802,124.39-124.391V909.404
					c0-68.589-55.802-124.391-124.39-124.391H485.177z"/>
			</g>
			<g>
				<g>
					<g>
						<path style="fill:#EFBC73;" d="M1250,1821.098c-252.613,0-458.128-205.516-458.128-458.128
							c0-252.614,205.515-458.13,458.128-458.13s458.128,205.516,458.128,458.13C1708.128,1615.582,1502.613,1821.098,1250,1821.098
							z M1250,909.249c-250.181,0-453.719,203.538-453.719,453.721c0,250.181,203.538,453.719,453.719,453.719
							s453.719-203.538,453.719-453.719C1703.719,1112.787,1500.181,909.249,1250,909.249z"/>
						<path style="fill:#EFBC73;" d="M1250,1750.85c-213.879,0-387.882-174.003-387.882-387.879
							c0-213.879,174.003-387.882,387.882-387.882s387.882,174.003,387.882,387.882
							C1637.882,1576.847,1463.879,1750.85,1250,1750.85z M1250,979.497c-211.447,0-383.473,172.025-383.473,383.473
							c0,211.446,172.026,383.471,383.473,383.471s383.473-172.025,383.473-383.471
							C1633.473,1151.522,1461.447,979.497,1250,979.497z"/>
						<path style="fill:#EFBC73;" d="M1250,1673.612c-171.288,0-310.642-139.354-310.642-310.642
							c0-171.291,139.353-310.644,310.642-310.644s310.642,139.353,310.642,310.644
							C1560.642,1534.259,1421.288,1673.612,1250,1673.612z M1250,1056.735c-168.857,0-306.234,137.377-306.234,306.236
							s137.376,306.234,306.234,306.234s306.234-137.375,306.234-306.234S1418.857,1056.735,1250,1056.735z"/>
						<path style="fill:#EFBC73;" d="M1250,1596.046c-128.519,0-233.076-104.558-233.076-233.075
							c0-128.52,104.558-233.077,233.076-233.077s233.076,104.558,233.076,233.077
							C1483.076,1491.488,1378.519,1596.046,1250,1596.046z M1250,1134.302c-126.087,0-228.668,102.579-228.668,228.669
							c0,126.087,102.581,228.667,228.668,228.667s228.668-102.579,228.668-228.667
							C1478.668,1236.881,1376.087,1134.302,1250,1134.302z"/>
						<path style="fill:#EFBC73;" d="M1250,1519.419c-86.266,0-156.449-70.184-156.449-156.449
							c0-86.267,70.182-156.451,156.449-156.451s156.449,70.184,156.449,156.451C1406.449,1449.236,1336.266,1519.419,1250,1519.419
							z M1250,1210.928c-83.835,0-152.041,68.205-152.041,152.043c0,83.835,68.205,152.04,152.041,152.04
							s152.041-68.205,152.041-152.04C1402.041,1279.133,1333.835,1210.928,1250,1210.928z"/>
						<path style="fill:#EFBC73;" d="M1250,1456.69c-51.678,0-93.722-42.043-93.722-93.719c0-51.678,42.043-93.722,93.722-93.722
							s93.722,42.044,93.722,93.722C1343.722,1414.646,1301.678,1456.69,1250,1456.69z M1250,1273.657
							c-49.248,0-89.313,40.065-89.313,89.313c0,49.246,40.065,89.311,89.313,89.311s89.313-40.065,89.313-89.311
							C1339.313,1313.722,1299.248,1273.657,1250,1273.657z"/>
					</g>
					<g>
						<path style="fill:#EFBC73;" d="M1250,1821.098c-1.217,0-2.204-0.986-2.204-2.204V907.045c0-1.218,0.987-2.204,2.204-2.204
							s2.204,0.986,2.204,2.204v911.849C1252.204,1820.112,1251.217,1821.098,1250,1821.098z"/>
						<path style="fill:#EFBC73;" d="M1477.964,1760.015c-0.762,0-1.502-0.394-1.911-1.102L1020.129,969.23
							c-0.608-1.055-0.248-2.402,0.807-3.011c1.051-0.611,2.401-0.25,3.011,0.807l455.923,789.684
							c0.608,1.055,0.248,2.402-0.807,3.011C1478.717,1759.921,1478.337,1760.015,1477.964,1760.015z"/>
						<path style="fill:#EFBC73;" d="M1644.84,1593.135c-0.374,0-0.752-0.095-1.1-0.295l-789.684-455.924
							c-1.055-0.609-1.415-1.957-0.807-3.011c0.609-1.055,1.953-1.418,3.012-0.807l789.684,455.924
							c1.055,0.609,1.415,1.957,0.807,3.011C1646.342,1592.739,1645.602,1593.135,1644.84,1593.135z"/>
						<path style="fill:#EFBC73;" d="M1705.923,1365.175H794.076c-1.217,0-2.204-0.986-2.204-2.204s0.987-2.204,2.204-2.204h911.847
							c1.217,0,2.204,0.986,2.204,2.204S1707.141,1365.175,1705.923,1365.175z"/>
						<path style="fill:#EFBC73;" d="M855.16,1593.135c-0.762,0-1.503-0.394-1.911-1.102c-0.608-1.055-0.247-2.402,0.807-3.011
							l789.684-455.924c1.053-0.611,2.4-0.247,3.011,0.807c0.608,1.055,0.247,2.402-0.807,3.011L856.26,1592.84
							C855.914,1593.041,855.534,1593.135,855.16,1593.135z"/>
						<path style="fill:#EFBC73;" d="M1022.036,1760.015c-0.373,0-0.752-0.095-1.1-0.295c-1.055-0.609-1.415-1.957-0.807-3.011
							l455.923-789.684c0.608-1.053,1.955-1.419,3.011-0.807c1.055,0.609,1.415,1.957,0.807,3.011l-455.923,789.684
							C1023.539,1759.621,1022.798,1760.015,1022.036,1760.015z"/>
					</g>
					<path style="fill:#EFBC73;" d="M1250,1821.098c-1.217,0-2.204-0.986-2.204-2.204V907.045c0-1.218,0.987-2.204,2.204-2.204
						s2.204,0.986,2.204,2.204v911.849C1252.204,1820.112,1251.217,1821.098,1250,1821.098z"/>
				</g>
				
					<ellipse transform="matrix(0.2298 -0.9732 0.9732 0.2298 -166.2894 2232.4377)" style="fill:#D87355;" cx="1327.259" cy="1221.277" rx="51.946" ry="51.946"/>
			</g>
		</g>
		<g>
			<g>
				<path style="fill:#363E44;" d="M761.06,2156.426h272.883c0,0-37.859-120.663-190.211-125.933H767.38L761.06,2156.426z"/>
				<path style="fill:#363E44;" d="M566.553,2165H382.949c0,0,8.337-81.653,91.556-148.907h56.069
					C530.574,2016.093,570.977,2117.603,566.553,2165z"/>
				<path style="fill:#776E42;" d="M513.213,1415.014c0,0-75.537,421.095-79.313,621.481l133.152,1.28l85.781-487.799l6.402,14.083
					c0,0,48.632,287.878,99.864,478.837l144.675-2.561l-110.172-644.372L513.213,1415.014z"/>
			</g>
			<g>
				<path style="fill:#9E6C5A;" d="M483.324,1128.673c-37.469,27.5-150.464,100.244-119.401,147.346
					c25.694,38.961,132.611-36.738,171.589-61.633C518.117,1185.814,500.721,1157.244,483.324,1128.673z"/>
				<path style="fill:#8B865C;" d="M784.649,1283.844c11.163,73.345,12.855,104.188,26.236,176.51
					c0,0-154.081-12.954-309.836-38.409l14.724-132.512l-112.868-111.428c0,0,3.72-3.396,11.303-10.866
					c38.558-37.983,90.691-58.971,144.812-58.425c18.878,0.19,30.047-2.272,118.161,2.701c51.005,2.879,95.941,19.97,135.31,40.731
					L784.649,1283.844z"/>
				<g>
					<g>
						<path style="fill:#9E6C5A;" d="M876.079,1255.288c0,0,99.774-76.094,134.402-99.132
							c36.367-24.195,93.583-54.622,97.737-46.564c2.366,4.59-4.579,10.353-24.167,24.523c1.707,0.274,6.671,2.382,8.167,7
							c2.214,6.833-2.816,10.137-3.12,10.637c0.586,0.046,7.236,0.927,9.493,5.25c2.542,4.869,1.016,9.275-1.707,12.618
							c1.451,0.159,7.492,1.852,9.449,6.113c2.546,5.539-1.308,11.078-5.539,13.803c-7.762,4.999-29.31,18.133-39.818,26.534
							c-20.679,16.531-86.236,85.095-122.439,101.089C935.847,1283.008,876.079,1255.288,876.079,1255.288z"/>
						<path style="fill:#363E44;" d="M1037.797,1197.225c-0.462,0-0.929-0.144-1.326-0.446c-0.972-0.734-1.165-2.116-0.43-3.087
							c5.475-7.25,6.791-14.605,7.849-20.516c1.158-6.468,2.159-12.056,8.417-13.249c3.212-0.611,6.859-3.037,10.55-7.017
							c0.763-0.822,0.4-1.722,0.271-1.978c-0.132-0.26-0.661-1.136-1.799-0.979l-28.219,3.158c-1.226,0.129-2.301-0.736-2.436-1.946
							c-0.136-1.21,0.735-2.301,1.945-2.437l28.219-3.158c2.598-0.286,5.045,1.033,6.226,3.375c1.173,2.325,0.791,5.058-0.974,6.961
							c-4.396,4.742-8.756,7.551-12.958,8.352c-3.01,0.573-3.699,2.975-4.902,9.695c-1.08,6.038-2.56,14.304-8.672,22.395
							C1039.125,1196.923,1038.465,1197.225,1037.797,1197.225z"/>
						<path style="fill:#363E44;" d="M1084.517,1195.718c-0.722,0-1.429-0.355-1.852-1.005c-3.288-5.073-3.404-11.378-0.785-16.465
							c-4.631,1.464-9.748-0.211-12.605-4.262c-1.768-2.508-2.433-5.549-1.873-8.565c0.561-3.016,2.275-5.616,4.827-7.321
							l0.836-0.557c-2.182-0.732-4.105-2.245-5.286-4.396c-2.318-4.225-1.098-9.506,2.839-12.285l8.498-5.993
							c0.991-0.7,2.369-0.465,3.072,0.532c0.702,0.995,0.464,2.37-0.532,3.072l-8.497,5.993c-2.102,1.483-2.754,4.303-1.517,6.559
							c1.316,2.396,4.355,3.308,6.771,2.045l6.352-3.326c1.043-0.542,2.322-0.179,2.918,0.827c0.599,1.009,0.304,2.307-0.672,2.96
							l-12.336,8.238c-1.554,1.038-2.598,2.622-2.94,4.458c-0.341,1.838,0.063,3.692,1.142,5.22
							c1.914,2.714,5.488,3.677,8.504,2.277l10.113-4.675c1.023-0.482,2.237-0.099,2.818,0.868c0.578,0.969,0.334,2.217-0.567,2.893
							l-4.53,3.408c-5.007,3.769-6.259,10.84-2.85,16.099c0.662,1.022,0.37,2.387-0.651,3.048
							C1085.344,1195.604,1084.928,1195.718,1084.517,1195.718z"/>
					</g>
					<path style="fill:#8B865C;" d="M986.233,1164.009l48.373,84.776l-78.769,63.66c-19.905,16.087-47.749,18.001-69.668,4.789
						l-122.159-45.377l20.596-129.35c41.069,10.951,87.084,39.15,134.418,71.951L986.233,1164.009z"/>
					<g>
						<path style="fill:#9E6C5A;" d="M1096.884,1169.62c2.723-3.343,4.249-7.749,1.707-12.618c-2.256-4.323-8.906-5.204-9.492-5.25
							c0.304-0.5,5.333-3.805,3.12-10.638c-1.496-4.617-6.46-6.726-8.167-6.999c19.587-14.17,26.533-19.933,24.167-24.523
							c-4.153-8.059-61.37,22.369-97.736,46.564c-2.518,1.675-5.388,3.637-8.53,5.823c14.752,22.52,29.098,45.306,42.906,68.415
							c6.648-6.169,12.195-11.186,16.119-14.323c10.509-8.401,32.057-21.535,39.819-26.534c4.23-2.725,8.084-8.264,5.538-13.803
							C1104.375,1171.473,1098.334,1169.779,1096.884,1169.62z"/>
						<path style="fill:#363E44;" d="M1037.797,1197.225c-0.462,0-0.929-0.144-1.326-0.446c-0.972-0.734-1.165-2.116-0.43-3.087
							c5.475-7.25,6.791-14.605,7.849-20.516c1.158-6.468,2.159-12.056,8.417-13.249c3.212-0.611,6.859-3.037,10.55-7.017
							c0.763-0.822,0.4-1.722,0.271-1.978c-0.132-0.26-0.661-1.136-1.799-0.979l-28.219,3.158c-1.226,0.129-2.301-0.736-2.436-1.946
							c-0.136-1.21,0.735-2.301,1.945-2.437l28.219-3.158c2.598-0.286,5.045,1.033,6.226,3.375c1.173,2.325,0.791,5.058-0.974,6.961
							c-4.396,4.742-8.756,7.551-12.958,8.352c-3.01,0.573-3.699,2.975-4.902,9.695c-1.08,6.038-2.56,14.304-8.672,22.395
							C1039.125,1196.923,1038.465,1197.225,1037.797,1197.225z"/>
						<path style="fill:#363E44;" d="M1084.517,1195.718c-0.722,0-1.429-0.355-1.852-1.005c-3.288-5.073-3.404-11.378-0.785-16.465
							c-4.631,1.464-9.748-0.211-12.605-4.262c-1.768-2.508-2.433-5.549-1.873-8.565c0.561-3.016,2.275-5.616,4.827-7.321
							l0.836-0.557c-2.182-0.732-4.105-2.245-5.286-4.396c-2.318-4.225-1.098-9.506,2.839-12.285l8.498-5.993
							c0.991-0.7,2.369-0.465,3.072,0.532c0.702,0.995,0.464,2.37-0.532,3.072l-8.497,5.993c-2.102,1.483-2.754,4.303-1.517,6.559
							c1.316,2.396,4.355,3.308,6.771,2.045l6.352-3.326c1.043-0.542,2.322-0.179,2.918,0.827c0.599,1.009,0.304,2.307-0.672,2.96
							l-12.336,8.238c-1.554,1.038-2.598,2.622-2.94,4.458c-0.341,1.838,0.063,3.692,1.142,5.22
							c1.914,2.714,5.488,3.677,8.504,2.277l10.113-4.675c1.023-0.482,2.237-0.099,2.818,0.868c0.578,0.969,0.334,2.217-0.567,2.893
							l-4.53,3.408c-5.007,3.769-6.259,10.84-2.85,16.099c0.662,1.022,0.37,2.387-0.651,3.048
							C1085.344,1195.604,1084.928,1195.718,1084.517,1195.718z"/>
					</g>
				</g>
				<g>
					<path style="fill:#9E6C5A;" d="M430.448,1259.562c22.533,31.93,79.318,104.498,84.579,111.802
						c9.835,13.655,60.712,88.304,50.737,96.813c-4.767,4.066-15.218-9.872-18.615-14.687c0.825,5.241,6.177,25.024-0.166,28.04
						c-7.452,3.543-17.438-19.054-17.815-19.308c1.379,5.237,7.714,25.876,3.046,28.323c-6.072,3.183-17.725-14.251-20.972-19.631
						c-0.394,1.007,5.193,22.03,1.394,23.823c-4.209,1.988-15.463-14.008-20.51-19.931c-8.747-12.125-45.271-57.42-64.06-78.579
						c-44.128-49.694-61.58-73.791-78.689-101.571c-6.698-10.875-9.781-24.865-6.858-35.418c3.7-13.36,14.345-20.244,27.696-16.513
						C390.298,1248.338,410.175,1253.946,430.448,1259.562z"/>
					<g>
						<path style="fill:#363E44;" d="M547.776,1455.497c-0.962,0-1.846-0.635-2.12-1.606c-0.93-3.293-2.096-6.548-3.464-9.673
							c-2.46-5.618-5.628-10.946-9.416-15.836c-0.746-0.962-0.569-2.346,0.393-3.093c0.961-0.743,2.346-0.573,3.092,0.394
							c4.01,5.177,7.364,10.819,9.97,16.766c1.45,3.311,2.684,6.757,3.669,10.246c0.331,1.171-0.351,2.389-1.523,2.719
							C548.175,1455.472,547.974,1455.497,547.776,1455.497z"/>
						<path style="fill:#363E44;" d="M529.716,1464.448c-0.873,0-1.699-0.521-2.046-1.38c-0.268-0.667-0.552-1.341-0.85-2.023
							c-2.458-5.614-5.627-10.944-9.415-15.834c-0.746-0.962-0.569-2.346,0.393-3.093c0.961-0.745,2.346-0.57,3.092,0.394
							c4.01,5.177,7.365,10.819,9.969,16.766c0.316,0.723,0.616,1.436,0.901,2.142c0.454,1.13-0.092,2.415-1.221,2.869
							C530.268,1464.396,529.99,1464.448,529.716,1464.448z"/>
						<path style="fill:#363E44;" d="M511.156,1472.683c-0.781,0-1.538-0.415-1.938-1.149c-1.917-3.522-4.143-6.927-6.614-10.117
							c-0.746-0.962-0.569-2.346,0.393-3.093c0.961-0.743,2.346-0.573,3.092,0.394c2.615,3.377,4.97,6.979,7.001,10.707
							c0.582,1.07,0.187,2.409-0.883,2.99C511.873,1472.597,511.512,1472.683,511.156,1472.683z"/>
					</g>
				</g>
				<path style="fill:#8B865C;" d="M509.845,1359.259l-75.04,55.477c0,0-107.135-119.79-95.271-156.862
					c14.279-44.62,97.766-123.114,141.03-134.242c21.702,5.766,13.24,79.344,24.326,123.55c1.418,5.656-65.298,20.543-61.455,25.606
					C483.765,1325.922,509.845,1359.259,509.845,1359.259z"/>
				<path style="fill:#363E44;" d="M511.155,1362.602c-0.618,0-1.232-0.258-1.668-0.762c-19.588-22.662-66.196-85.325-74.254-96.744
					c-0.702-0.995-0.465-2.37,0.53-3.072c0.996-0.697,2.369-0.465,3.072,0.532c8.034,11.383,54.485,73.836,73.987,96.399
					c0.796,0.921,0.695,2.314-0.226,3.11C512.179,1362.426,511.665,1362.602,511.155,1362.602z"/>
			</g>
			<g>
				
					<ellipse transform="matrix(0.9817 -0.1902 0.1902 0.9817 -195.7305 144.5133)" style="fill:#776E42;" cx="655.041" cy="1092.001" rx="42.122" ry="19.27"/>
				<g>
					<polygon style="fill:#9E6C5A;" points="631.051,1128.632 687.246,1111.619 684.776,1046.42 626.539,1048.626 					"/>
					<path style="fill:#9E6C5A;" d="M699.977,1071.467c-7.152,12.876-47.746,6.628-47.746,6.628l-35.029-28.247
						c-8.942-18.692-1.039-41.094,17.654-50.036c18.692-8.942,41.094-1.038,50.036,17.654
						C684.892,1017.466,707.262,1058.352,699.977,1071.467z"/>
					<path style="fill:#9E6C5A;" d="M685.26,1028.226c0,0,14.251,5.405,15.002,8.272c0.897,3.423-8.763,10.393-8.763,10.393
						S685.524,1028.13,685.26,1028.226z"/>
					<g>
						<path style="fill:#FFFFFF;" d="M654.024,1041.39c0,0,4.208-5.758,11.039-9.025c1.453-0.695,4.275,12.245,2.58,12.247
							C660.193,1044.617,654.024,1041.39,654.024,1041.39z"/>
						<g>
							<defs>
								<path id="SVGID_1_" d="M654.024,1041.39c0,0,6.189-8.469,15.739-10.693c9.55-2.224,18.844,2.639,18.844,2.639
									s-6.189,8.469-15.739,10.693C663.318,1046.253,654.024,1041.39,654.024,1041.39z"/>
							</defs>
							<clipPath id="SVGID_00000110442986053915189490000009913248885601467047_">
								<use xlink:href="#SVGID_1_"  style="overflow:visible;"/>
							</clipPath>
							
								<ellipse transform="matrix(0.3537 -0.9354 0.9354 0.3537 -531.4708 1303.2205)" style="clip-path:url(#SVGID_00000110442986053915189490000009913248885601467047_);fill:#363E44;" cx="677.302" cy="1036.193" rx="12.823" ry="12.823"/>
						</g>
					</g>
					<path style="fill:#363E44;" d="M683.659,1059.477c-0.318,0-0.637-0.019-0.958-0.063c-2.795-0.359-5.192-2.329-6.105-5.011
						c-0.392-1.154,0.225-2.404,1.378-2.796c1.154-0.402,2.404,0.224,2.796,1.375c0.376,1.104,1.356,1.914,2.499,2.06
						c1.186,0.159,2.366-0.409,3.002-1.44c0.639-1.033,1.997-1.36,3.033-0.717c1.036,0.637,1.358,1.995,0.719,3.033
						C688.648,1058.145,686.222,1059.477,683.659,1059.477z"/>
					<path style="fill:#363E44;" d="M673.143,1082.406c-10.706,0-20.343-1.453-20.968-1.55c-1.202-0.185-2.028-1.311-1.843-2.514
						c0.185-1.201,1.313-2.028,2.513-1.843c0.234,0.037,23.308,3.513,37.055-0.295c1.176-0.323,2.389,0.362,2.713,1.537
						c0.325,1.173-0.363,2.387-1.536,2.712C685.741,1081.93,679.268,1082.406,673.143,1082.406z"/>
					<path style="fill:#363E44;" d="M665.977,1005.259c6.374-0.909,11.646-5.443,13.451-11.624
						c3.223-11.037-3.716-13.446-10.626-22.607c-1.316-1.744-17.539-3.711-19.42-4.423c-10.473-3.959,7.028,1.613-14.713,11.873
						c-20.949,9.886-37.239,2.95-44.295,15.162c-3.102,5.37-2.503,11.243-2.41,12.672c1.212,18.884,17.888,25.421,17.888,25.421
						s-11.274-3.335-13.655,12.051c-2.38,15.386,46.206,11.687,46.206,11.687l5.188-6.464l-7.41-14.879
						c-5.635-11.316,1.461-24.828,13.975-26.613L665.977,1005.259z"/>
					<path style="fill:#9E6C5A;" d="M610.702,1053.124c0.315,7.14,6.359,12.672,13.5,12.357c7.14-0.315,12.672-6.359,12.357-13.499
						c-0.315-7.14-6.359-12.672-13.499-12.357C615.919,1039.94,610.386,1045.984,610.702,1053.124z"/>
				</g>
				<path style="fill:#363E44;" d="M603.86,1061.763c-68.175-49.157,17.132-146.28,81.824-81.231L603.86,1061.763z"/>
				<path style="fill:#9E9569;" d="M627.591,1131.385l-13.958-30.384c18.413,14.527,61.8,9.224,82.91-14.017l4.442,33.278
					C673.709,1151.056,650.424,1143.396,627.591,1131.385z"/>
			</g>
		</g>
		<g>
			<g>
				<path style="fill:#363E44;" d="M1056.763,909.443c-0.129,0-0.258-0.011-0.386-0.034l-22.65-4.034
					c-0.878-0.155-1.575-0.826-1.766-1.696c-0.192-0.872,0.16-1.772,0.891-2.282l88.353-61.647c1.002-0.691,2.372-0.448,3.069,0.547
					c0.696,0.999,0.451,2.372-0.547,3.07l-83.99,58.601l16.513,2.94l133.011-92.807c1.002-0.691,2.373-0.45,3.069,0.547
					c0.696,0.999,0.452,2.372-0.547,3.07l-133.76,93.33C1057.652,909.307,1057.211,909.443,1056.763,909.443z"/>
				<path style="fill:#363E44;" d="M1663.938,1017.543c-0.128,0-0.257-0.011-0.386-0.034l-22.65-4.032
					c-0.576-0.101-1.087-0.428-1.422-0.908l-93.329-133.761c-0.696-0.999-0.451-2.372,0.547-3.07c1.002-0.693,2.373-0.45,3.07,0.547
					l92.806,133.012l16.512,2.94l-58.602-83.99c-0.696-0.999-0.451-2.372,0.547-3.07c1.002-0.693,2.372-0.45,3.069,0.547
					l61.647,88.353c0.51,0.732,0.529,1.698,0.048,2.45C1665.386,1017.167,1664.682,1017.543,1663.938,1017.543z"/>
			</g>
			<g>
				<g>
					<polygon style="fill:#8B865C;" points="1132.347,748.565 913.978,532.405 920.14,497.797 1181.129,670.764 					"/>
					<polygon style="fill:#8B865C;" points="984.368,556.021 936.039,547.416 920.14,497.797 992.443,510.67 					"/>
				</g>
				<path style="fill:#363E44;" d="M979.295,504.442c-0.129,0-0.258-0.011-0.386-0.034l-43.905-7.818
					c-1.199-0.213-1.998-1.358-1.783-2.555l3.129-17.573c0.212-1.201,1.356-2.006,2.556-1.784l43.905,7.816
					c1.199,0.213,1.998,1.358,1.783,2.555l-3.129,17.576c-0.102,0.577-0.429,1.087-0.908,1.423
					C980.184,504.306,979.743,504.442,979.295,504.442z M937.946,492.635l39.566,7.045l2.356-13.234l-39.566-7.043L937.946,492.635z
					"/>
				<path style="fill:#363E44;" d="M813.336,594.922c-0.406,0-0.813-0.112-1.171-0.336c-0.739-0.465-1.135-1.322-1.011-2.185
					c0.121-0.831,13.199-83.146,113.826-96.079c1.194-0.136,2.313,0.7,2.467,1.905c0.155,1.208-0.697,2.314-1.905,2.469
					c-82.61,10.616-104.163,69.137-108.866,87.098l123.54-83.594c1.008-0.68,2.379-0.418,3.061,0.59
					c0.682,1.009,0.419,2.378-0.59,3.061l-128.116,86.691C814.2,594.795,813.768,594.922,813.336,594.922z"/>
				<path style="fill:#363E44;" d="M993.504,482.947c-1.091,0-2.04-0.811-2.183-1.922c-0.155-1.208,0.697-2.314,1.905-2.469
					c82.61-10.616,104.163-69.138,108.866-87.096l-123.54,83.594c-1.01,0.682-2.38,0.415-3.061-0.59
					c-0.682-1.009-0.419-2.379,0.59-3.061l128.116-86.691c0.722-0.489,1.666-0.506,2.406-0.043c0.739,0.465,1.135,1.322,1.011,2.185
					c-0.121,0.831-13.199,83.144-113.826,96.077C993.694,482.94,993.598,482.947,993.504,482.947z"/>
				<g>
					<path style="fill:#363E44;" d="M959.132,636.135c-8.617,0-17.268-0.768-25.914-2.307c-32.964-5.868-62.07-22.214-84.169-47.274
						c-0.805-0.913-0.718-2.305,0.195-3.11c0.914-0.809,2.306-0.719,3.112,0.196c21.434,24.302,49.662,40.158,81.635,45.849
						c20.377,3.627,40.779,2.848,60.642-2.327c1.185-0.304,2.382,0.4,2.689,1.578c0.307,1.177-0.399,2.381-1.578,2.688
						C983.693,634.565,971.448,636.135,959.132,636.135z"/>
					<path style="fill:#363E44;" d="M1041.509,610.128c-0.696,0-1.381-0.329-1.81-0.943c-0.696-0.999-0.451-2.372,0.547-3.07
						c31.138-21.723,51.952-54.276,58.607-91.657c4.279-24.035,2.305-48.846-5.708-71.751c-0.403-1.15,0.203-2.407,1.353-2.809
						c1.147-0.398,2.407,0.207,2.808,1.354c8.264,23.618,10.3,49.198,5.887,73.979c-6.861,38.541-28.321,72.102-60.424,94.501
						C1042.384,609.998,1041.944,610.128,1041.509,610.128z"/>
					<path style="fill:#363E44;" d="M1058.635,387.363c-0.548,0-1.097-0.202-1.524-0.611c-13.252-12.685-28.589-22.539-45.588-29.29
						c-1.131-0.45-1.684-1.731-1.234-2.863c0.448-1.132,1.724-1.685,2.862-1.236c17.528,6.961,33.345,17.123,47.008,30.202
						c0.879,0.842,0.911,2.239,0.068,3.117C1059.794,387.135,1059.215,387.363,1058.635,387.363z"/>
					<path style="fill:#363E44;" d="M821.948,537.43c-0.922,0-1.781-0.583-2.09-1.505c-7.715-23.058-9.525-47.98-5.236-72.072
						c14.165-79.56,90.415-132.762,169.974-118.599c1.199,0.213,1.997,1.358,1.783,2.555c-0.213,1.199-1.364,2-2.556,1.785
						c-77.168-13.751-151.124,37.865-164.862,115.03c-4.16,23.37-2.404,47.541,5.077,69.902c0.386,1.154-0.237,2.404-1.391,2.79
						C822.415,537.393,822.179,537.43,821.948,537.43z"/>
				</g>
			</g>
			<g>
				<g>
					<polygon style="fill:#8B865C;" points="1625.114,836.297 1904.669,708.787 1910.83,674.18 1606.181,746.44 					"/>
					<polygon style="fill:#8B865C;" points="1830.453,706.658 1878.783,715.263 1910.83,674.18 1838.527,661.307 					"/>
				</g>
				<path style="fill:#363E44;" d="M1897.683,667.951c-0.129,0-0.258-0.011-0.386-0.034l-43.905-7.818
					c-0.576-0.101-1.087-0.428-1.422-0.908c-0.334-0.48-0.465-1.072-0.362-1.649l3.13-17.573c0.212-1.199,1.352-2.008,2.556-1.782
					l43.904,7.818c1.199,0.213,1.998,1.358,1.783,2.555l-3.129,17.573c-0.102,0.577-0.429,1.087-0.908,1.423
					C1898.572,667.816,1898.13,667.951,1897.683,667.951z M1856.333,656.144l39.566,7.045l2.356-13.232l-39.565-7.045
					L1856.333,656.144z"/>
				<path style="fill:#363E44;" d="M1978.309,802.334c-0.701,0-1.37-0.334-1.79-0.917l-90.323-125.584
					c-0.71-0.988-0.485-2.366,0.503-3.076c0.988-0.712,2.363-0.486,3.077,0.502l87.09,121.089
					c1.761-18.503,1.653-80.893-72.108-119.313c-1.079-0.562-1.499-1.892-0.936-2.973c0.561-1.076,1.891-1.503,2.973-0.936
					c89.98,46.867,73.845,128.64,73.672,129.46c-0.181,0.855-0.848,1.52-1.703,1.701
					C1978.612,802.319,1978.46,802.334,1978.309,802.334z"/>
				<path style="fill:#363E44;" d="M1847.854,635.056c-0.342,0-0.691-0.08-1.016-0.25c-89.979-46.867-73.845-128.64-73.672-129.46
					c0.181-0.855,0.848-1.52,1.703-1.701c0.858-0.181,1.734,0.161,2.244,0.87l90.323,125.584c0.71,0.988,0.485,2.366-0.503,3.076
					c-0.99,0.71-2.366,0.487-3.077-0.501l-87.09-121.089c-1.761,18.503-1.652,80.893,72.108,119.313
					c1.08,0.562,1.499,1.892,0.936,2.973C1849.418,634.623,1848.65,635.056,1847.854,635.056z"/>
				<g>
					<path style="fill:#363E44;" d="M1877.706,799.661c-8.656,0-17.378-0.771-26.101-2.325
						c-21.003-3.739-40.469-11.757-57.854-23.831c-1-0.695-1.247-2.069-0.553-3.067c0.696-1.001,2.07-1.248,3.067-0.553
						c16.86,11.708,35.739,19.485,56.112,23.112c31.973,5.693,63.937,0.557,92.445-14.857c1.069-0.575,2.408-0.181,2.988,0.891
						c0.578,1.07,0.18,2.409-0.891,2.988C1925.306,793.703,1901.761,799.661,1877.706,799.661z"/>
					<path style="fill:#363E44;" d="M1758.915,737.855c-0.696,0-1.381-0.329-1.81-0.943c-22.4-32.103-30.958-71.01-24.095-109.549
						c4.413-24.78,15.153-48.088,31.059-67.4c0.775-0.941,2.167-1.072,3.103-0.299c0.94,0.773,1.074,2.161,0.3,3.102
						c-15.426,18.729-25.842,41.333-30.123,65.371c-6.655,37.381,1.645,75.115,23.372,106.254c0.696,0.999,0.452,2.372-0.547,3.07
						C1759.79,737.726,1759.349,737.855,1758.915,737.855z"/>
					<path style="fill:#363E44;" d="M1819.722,522.866c-0.85,0-1.66-0.495-2.021-1.324c-0.486-1.115,0.024-2.415,1.14-2.902
						c17.337-7.557,35.688-11.634,54.544-12.121c1.17-0.047,2.229,0.93,2.26,2.148c0.031,1.216-0.93,2.228-2.146,2.26
						c-18.286,0.469-36.083,4.423-52.898,11.755C1820.315,522.807,1820.016,522.866,1819.722,522.866z"/>
					<path style="fill:#363E44;" d="M1990.07,745.404c-0.483,0-0.97-0.157-1.377-0.484c-0.95-0.76-1.104-2.148-0.343-3.097
						c14.741-18.406,24.731-40.487,28.89-63.853c13.739-77.166-37.863-151.124-115.03-164.863c-1.199-0.213-1.997-1.358-1.783-2.555
						c0.212-1.201,1.353-2.01,2.556-1.785c79.559,14.164,132.761,90.415,118.596,169.973c-4.288,24.091-14.589,46.857-29.788,65.838
						C1991.356,745.122,1990.715,745.404,1990.07,745.404z"/>
				</g>
			</g>
			<g>
				
					<rect x="1121.926" y="693.716" transform="matrix(0.9845 0.1753 -0.1753 0.9845 154.9587 -230.8312)" style="fill:#8B865C;" width="524.52" height="136.14"/>
				
					<rect x="1231.972" y="755.65" transform="matrix(0.9845 0.1753 -0.1753 0.9845 163.5488 -228.507)" style="fill:#8B865C;" width="286.7" height="111.848"/>
				<g>
					<path style="fill:#363E44;" d="M1205.976,783.629c-0.128,0-0.258-0.011-0.389-0.034c-1.199-0.213-1.998-1.358-1.783-2.555
						l13.867-77.883c0.102-0.577,0.429-1.087,0.908-1.423l23.889-16.669c1.002-0.693,2.372-0.45,3.07,0.547
						c0.696,0.999,0.452,2.372-0.547,3.069l-23.14,16.146l-13.707,76.983C1207.954,782.88,1207.025,783.629,1205.976,783.629z"/>
					<path style="fill:#363E44;" d="M1186.467,780.155c-0.128,0-0.258-0.011-0.388-0.034c-1.199-0.213-1.998-1.358-1.783-2.555
						l13.867-77.883c0.102-0.577,0.429-1.087,0.908-1.423l23.889-16.669c1.002-0.693,2.373-0.448,3.069,0.547
						c0.696,0.999,0.452,2.372-0.547,3.07l-23.14,16.146l-13.707,76.984C1188.445,779.406,1187.515,780.155,1186.467,780.155z"/>
					<path style="fill:#363E44;" d="M1166.957,776.68c-0.128,0-0.258-0.011-0.389-0.034c-1.199-0.213-1.998-1.358-1.783-2.555
						l13.867-77.883c0.102-0.577,0.429-1.087,0.908-1.423l23.889-16.667c1.002-0.693,2.372-0.448,3.07,0.547
						c0.696,0.999,0.451,2.372-0.547,3.069l-23.14,16.144l-13.707,76.984C1168.935,775.931,1168.005,776.68,1166.957,776.68z"/>
				</g>
				<g>
					<path style="fill:#363E44;" d="M1595.95,853.059c-0.696,0-1.381-0.329-1.81-0.943l-16.668-23.889
						c-0.334-0.48-0.465-1.072-0.362-1.647l13.867-77.883c0.213-1.201,1.359-2.008,2.556-1.784c1.199,0.213,1.997,1.358,1.783,2.555
						l-13.706,76.986l16.146,23.14c0.696,0.999,0.452,2.372-0.547,3.07C1596.825,852.93,1596.385,853.059,1595.95,853.059z"/>
					<path style="fill:#363E44;" d="M1576.442,849.585c-0.696,0-1.381-0.329-1.81-0.943l-16.669-23.889
						c-0.334-0.48-0.465-1.072-0.362-1.647l13.867-77.883c0.212-1.201,1.355-2.004,2.556-1.784c1.199,0.213,1.998,1.358,1.783,2.555
						l-13.706,76.986l16.147,23.14c0.696,0.999,0.452,2.372-0.547,3.069C1577.317,849.456,1576.876,849.585,1576.442,849.585z"/>
					<path style="fill:#363E44;" d="M1556.932,846.113c-0.696,0-1.381-0.329-1.81-0.943l-16.669-23.891
						c-0.334-0.48-0.465-1.072-0.362-1.647l13.867-77.881c0.212-1.201,1.352-2.01,2.556-1.784c1.199,0.213,1.998,1.358,1.783,2.555
						l-13.706,76.983l16.147,23.142c0.696,0.999,0.451,2.372-0.547,3.069C1557.807,845.984,1557.367,846.113,1556.932,846.113z"/>
				</g>
			</g>
			<g>
				<path style="fill:#363E44;" d="M1383.962,821.966c-3.429,0-6.882-0.303-10.328-0.917c-15.308-2.725-28.637-11.247-37.535-23.999
					c-8.897-12.752-12.296-28.205-9.57-43.514c2.725-15.307,11.248-28.637,24-37.534c12.751-8.899,28.208-12.295,43.513-9.57
					c31.599,5.627,52.731,35.911,47.105,67.51c-2.725,15.309-11.249,28.64-24.001,37.536
					C1407.266,818.373,1395.763,821.966,1383.962,821.966z M1383.723,709.924c-10.907,0-21.539,3.321-30.672,9.695
					c-11.786,8.223-19.663,20.544-22.183,34.69c-2.518,14.149,0.622,28.433,8.846,40.218c8.224,11.785,20.544,19.664,34.693,22.182
					c14.154,2.514,28.431-0.622,40.217-8.845c11.785-8.223,19.663-20.544,22.183-34.693c5.199-29.208-14.332-57.2-43.538-62.4
					C1390.084,710.206,1386.892,709.924,1383.723,709.924z M1438.977,773.557h0.022H1438.977z"/>
				
					<ellipse transform="matrix(0.7071 -0.7071 0.7071 0.7071 -134.7297 1202.2157)" style="fill:#363E44;" cx="1383.838" cy="763.741" rx="40.004" ry="40.004"/>
				<path style="fill:#F7F1EB;" d="M1404.633,753.447c-0.904,5.075-5.751,8.457-10.826,7.554c-5.076-0.904-8.457-5.751-7.554-10.826
					c0.904-5.076,5.751-8.457,10.826-7.554C1402.155,743.525,1405.536,748.372,1404.633,753.447z"/>
			</g>
		</g>
		<g>
			<path style="fill:#D3BBA3;" d="M2128.063,1387.258v-39.974l-7.808,25.349l-257.313-56.283v-50.938
				c0-39.269-20.843-75.594-54.766-95.441l-13.07-7.647l-13.069,7.647c-33.923,19.849-54.766,56.174-54.766,95.445v50.934
				l-257.313,56.283l-7.808-25.349v39.974h266.942c3.356,39.819,11.376,79.147,23.89,117.191l-84.762,20.992v11.699h100.924
				l10.346,15.863h31.233l10.346-15.863h100.924v-11.699l-84.761-20.992c12.514-38.044,20.534-77.373,23.889-117.191H2128.063z"/>
			
				<ellipse transform="matrix(0.0011 -1 1 0.0011 245.5247 2933.7502)" style="fill:#EFBC73;" cx="1591.232" cy="1343.979" rx="20.718" ry="20.741"/>
			<g>
				<rect x="1643.933" y="1372.634" style="fill:#FFFFFF;" width="6.718" height="35.567"/>
				<g>
					<rect x="1627.809" y="1393.437" style="fill:#363E44;" width="13.437" height="30.87"/>
					<rect x="1653.338" y="1393.437" style="fill:#363E44;" width="13.436" height="30.87"/>
				</g>
			</g>
			
				<ellipse transform="matrix(1 -0.0011 0.0011 1 -1.4589 2.1724)" style="fill:#EFBC73;" cx="1998.979" cy="1343.979" rx="20.741" ry="20.718"/>
			<g>
				
					<rect x="1939.56" y="1372.634" transform="matrix(-1 -1.224647e-16 1.224647e-16 -1 3885.8386 2780.835)" style="fill:#FFFFFF;" width="6.718" height="35.567"/>
				<g>
					
						<rect x="1948.966" y="1393.437" transform="matrix(-1 -1.224647e-16 1.224647e-16 -1 3911.3679 2817.7446)" style="fill:#363E44;" width="13.437" height="30.87"/>
					
						<rect x="1923.436" y="1393.437" transform="matrix(-1 -1.224647e-16 1.224647e-16 -1 3860.3091 2817.7446)" style="fill:#363E44;" width="13.437" height="30.87"/>
				</g>
			</g>
			<g>
				<rect x="1791.746" y="1263.925" style="fill:#FFFFFF;" width="6.718" height="35.567"/>
				<g>
					<rect x="1775.622" y="1284.729" style="fill:#363E44;" width="13.437" height="30.87"/>
					<rect x="1801.152" y="1284.729" style="fill:#363E44;" width="13.437" height="30.87"/>
				</g>
			</g>
		</g>
		<g>
			<path style="fill:#D3BBA3;" d="M1925.207,1947.436v-41.709l-8.147,26.449l-268.483-58.726v-53.149
				c0-40.974-21.748-78.876-57.143-99.584l-13.637-7.979l-13.636,7.979c-35.396,20.71-57.144,58.613-57.144,99.588v53.145
				l-268.484,58.726l-8.147-26.449v41.709h278.53c3.502,41.547,11.869,82.583,24.927,122.279l-88.442,21.903v12.207h105.306
				l10.795,16.552h32.589l10.795-16.552h105.305v-12.207l-88.441-21.903c13.057-39.696,21.425-80.731,24.926-122.279H1925.207z"/>
			<path style="fill:#EFBC73;" d="M1386.714,1902.278c0,11.939-9.689,21.617-21.641,21.617s-21.642-9.679-21.642-21.617
				c0-11.939,9.689-21.618,21.642-21.618S1386.714,1890.339,1386.714,1902.278z"/>
			<g>
				<rect x="1420.061" y="1932.177" style="fill:#FFFFFF;" width="7.01" height="37.111"/>
				<g>
					<rect x="1403.237" y="1953.883" style="fill:#363E44;" width="14.02" height="32.21"/>
					<rect x="1429.875" y="1953.883" style="fill:#363E44;" width="14.02" height="32.21"/>
				</g>
			</g>
			<path style="fill:#EFBC73;" d="M1768.878,1902.278c0,11.939,9.689,21.617,21.642,21.617s21.641-9.679,21.641-21.617
				c0-11.939-9.689-21.618-21.641-21.618S1768.878,1890.339,1768.878,1902.278z"/>
			<g>
				
					<rect x="1728.522" y="1932.177" transform="matrix(-1 -1.224647e-16 1.224647e-16 -1 3464.053 3901.4648)" style="fill:#FFFFFF;" width="7.01" height="37.111"/>
				<g>
					
						<rect x="1738.335" y="1953.883" transform="matrix(-1 -1.224647e-16 1.224647e-16 -1 3490.6907 3939.9768)" style="fill:#363E44;" width="14.02" height="32.21"/>
					
						<rect x="1711.698" y="1953.883" transform="matrix(-1 -1.224647e-16 1.224647e-16 -1 3437.4153 3939.9768)" style="fill:#363E44;" width="14.02" height="32.21"/>
				</g>
			</g>
			<g>
				<rect x="1574.291" y="1818.749" style="fill:#FFFFFF;" width="7.01" height="37.111"/>
				<g>
					<rect x="1557.467" y="1840.455" style="fill:#363E44;" width="14.02" height="32.21"/>
					<rect x="1584.105" y="1840.455" style="fill:#363E44;" width="14.02" height="32.21"/>
				</g>
			</g>
		</g>
		<g>
			<path style="fill:#363E44;" d="M1952.499,1829.433c-64.346,0-116.695-52.348-116.695-116.694s52.349-116.696,116.695-116.696
				c64.346,0,116.696,52.35,116.696,116.696S2016.845,1829.433,1952.499,1829.433z M1952.499,1600.452
				c-61.915,0-112.286,50.372-112.286,112.287c0,61.914,50.372,112.285,112.286,112.285c61.916,0,112.287-50.372,112.287-112.285
				C2064.787,1650.823,2014.415,1600.452,1952.499,1600.452z"/>
			<path style="fill:#363E44;" d="M1952.499,1801.523c-48.955,0-88.784-39.828-88.784-88.784c0-48.957,39.828-88.786,88.784-88.786
				c48.956,0,88.785,39.828,88.785,88.786C2041.284,1761.694,2001.456,1801.523,1952.499,1801.523z M1952.499,1628.362
				c-46.525,0-84.375,37.853-84.375,84.378s37.85,84.375,84.375,84.375s84.376-37.85,84.376-84.375
				S1999.024,1628.362,1952.499,1628.362z"/>
			<path style="fill:#363E44;" d="M1952.499,1687.219c-1.217,0-2.204-0.986-2.204-2.204v-125.838c0-1.218,0.987-2.204,2.204-2.204
				s2.204,0.986,2.204,2.204v125.838C1954.703,1686.233,1953.717,1687.219,1952.499,1687.219z"/>
			<path style="fill:#363E44;" d="M2109.624,1714.943h-125.836c-1.217,0-2.204-0.986-2.204-2.204s0.987-2.204,2.204-2.204h125.836
				c1.217,0,2.204,0.986,2.204,2.204S2110.841,1714.943,2109.624,1714.943z"/>
			<path style="fill:#363E44;" d="M1952.499,1868.504c-1.217,0-2.204-0.986-2.204-2.204v-125.838c0-1.218,0.987-2.204,2.204-2.204
				s2.204,0.986,2.204,2.204v125.838C1954.703,1867.518,1953.717,1868.504,1952.499,1868.504z"/>
			<path style="fill:#363E44;" d="M1924.608,1714.943H1798.77c-1.217,0-2.204-0.986-2.204-2.204s0.987-2.204,2.204-2.204h125.838
				c1.217,0,2.204,0.986,2.204,2.204S1925.825,1714.943,1924.608,1714.943z"/>
		</g>
	</g>
</g>
</svg>
