<svg width="108" height="144" viewBox="0 0 108 144" fill="none" xmlns="http://www.w3.org/2000/svg">
<path d="M90 69.8C95.6 72.8667 100 76.8 103.2 81.6C106.4 86.4 108 91.6 108 97.2V105.2C108 112.8 106.133 119.533 102.4 125.4C98.8 131.133 93.6 135.6 86.8 138.8C80.1333 142 72.4667 143.6 63.8 143.6H44.4C30.9333 143.6 20.2667 139.667 12.4 131.8C4.66667 123.8 0.8 112.933 0.8 99.2H23.8C23.8 106.533 25.6 112.333 29.2 116.6C32.9333 120.867 38 123 44.4 123H63.8C69.9333 123 74.9333 121.4 78.8 118.2C82.6667 114.867 84.6 110.533 84.6 105.2V97.2C84.6 92 82.6667 87.9333 78.8 85C74.9333 82.0667 69.7333 80.6 63.2 80.6H39V60.2H63.2C68.9333 60.2 73.4667 58.8 76.8 56C80.2667 53.0667 82 49.0667 82 44V36C82 31.4667 80.3333 27.8667 77 25.2C73.8 22.4 69.5333 21 64.2 21H44.8C38.8 21 34 23.1333 30.4 27.4C26.9333 31.6667 25.2 37.4667 25.2 44.8H1.8C1.8 31.0667 5.6 20.2667 13.2 12.4C20.9333 4.4 31.4667 0.399999 44.8 0.399999H64.2C72.3333 0.399999 79.4667 1.86666 85.6 4.79999C91.8667 7.73333 96.7333 11.9333 100.2 17.4C103.667 22.7333 105.4 28.9333 105.4 36V44C105.4 49.2 104 54.0667 101.2 58.6C98.5333 63.1333 94.8 66.8667 90 69.8Z" fill="url(#paint0_linear_127_89)" fill-opacity="0.51"/>
<defs>
<linearGradient id="paint0_linear_127_89" x1="54" y1="-58" x2="54.9145" y2="100.495" gradientUnits="userSpaceOnUse">
<stop stop-color="white"/>
<stop offset="1" stop-color="white" stop-opacity="0"/>
</linearGradient>
</defs>
</svg>
