<svg width="107" height="142" viewBox="0 0 107 142" fill="none" xmlns="http://www.w3.org/2000/svg">
<path d="M42.8 141.6C29.7333 141.6 19.4667 137.867 12 130.4C4.53333 122.8 0.800001 112.467 0.800001 99.4H23.8C23.8 106.067 25.4667 111.333 28.8 115.2C32.2667 119.067 36.9333 121 42.8 121H62C68.4 121 73.5333 119.2 77.4 115.6C81.4 111.867 83.4 106.933 83.4 100.8V89.4C83.4 83.9333 81.4 79.5333 77.4 76.2C73.4 72.8667 68.0667 71.2 61.4 71.2H5.6V-9.53674e-06H101.6V20.6H29V50.4H61.4C70.3333 50.4 78.2 52.0667 85 55.4C91.9333 58.6 97.2667 63.1333 101 69C104.867 74.8667 106.8 81.6667 106.8 89.4V100.8C106.8 108.8 104.933 115.933 101.2 122.2C97.4667 128.333 92.2 133.133 85.4 136.6C78.6 139.933 70.8 141.6 62 141.6H42.8Z" fill="url(#paint0_linear_127_279)" fill-opacity="0.51"/>
<defs>
<linearGradient id="paint0_linear_127_279" x1="52" y1="-60" x2="53.102" y2="130.994" gradientUnits="userSpaceOnUse">
<stop stop-color="white"/>
<stop offset="1" stop-color="white" stop-opacity="0"/>
</linearGradient>
</defs>
</svg>
