<?xml version="1.0" encoding="utf-8"?>
<!-- Generator: Adobe Illustrator 27.5.0, SVG Export Plug-In . SVG Version: 6.00 Build 0)  -->
<svg version="1.1" xmlns="http://www.w3.org/2000/svg" xmlns:xlink="http://www.w3.org/1999/xlink" x="0px" y="0px"
	 viewBox="0 0 750 500" style="enable-background:new 0 0 750 500;" xml:space="preserve">
<g id="BACKGROUND">
</g>
<g id="OBJECTS">
	<linearGradient id="SVGID_1_" gradientUnits="userSpaceOnUse" x1="476.6822" y1="392.074" x2="613.3503" y2="142.0718">
		<stop  offset="0" style="stop-color:#FFFFFF;stop-opacity:0"/>
		<stop  offset="0.6343" style="stop-color:#B5CCFF;stop-opacity:0.6343"/>
		<stop  offset="1" style="stop-color:#8FB2FF"/>
	</linearGradient>
	<path style="fill:url(#SVGID_1_);" d="M723.61,374.789c0,0-7.819-47.251-45.308-55.503c10.775-31.344-8.465-69.015-41.554-64.622
		c16.189-37.282-20.585-85.444-60.063-71.562c-13.34-68.06-115.791-76.534-156.253-15.282c-78.58-4.364-80.339,70.247-80.926,87.119
		c-35.771,7.241-72.129,67.516-66.852,119.85H723.61z"/>
	
		<linearGradient id="SVGID_00000127727206457223630110000011972381388069894056_" gradientUnits="userSpaceOnUse" x1="306.5584" y1="385.6603" x2="133.1844" y2="110.2532">
		<stop  offset="0" style="stop-color:#FFFFFF;stop-opacity:0"/>
		<stop  offset="0.0872" style="stop-color:#F3F7FF;stop-opacity:0.0872"/>
		<stop  offset="0.5105" style="stop-color:#BDD2FF;stop-opacity:0.5105"/>
		<stop  offset="0.8275" style="stop-color:#9CBBFF;stop-opacity:0.8275"/>
		<stop  offset="1" style="stop-color:#8FB2FF"/>
	</linearGradient>
	<path style="fill:url(#SVGID_00000127727206457223630110000011972381388069894056_);" d="M28.19,374.789h506.849
		c0,0,4.977-104.074-84.613-147.092c9.332-44.117-19.048-106.211-88.346-89.535c-40.44-59.727-160.871-27.375-160.871,60.269
		c-85.004,4.619-121.588,63.125-109.145,129.814C51.002,340.754,28.19,374.789,28.19,374.789z"/>
	<g>
		
			<linearGradient id="SVGID_00000026875427326448868120000010018933870287654297_" gradientUnits="userSpaceOnUse" x1="96.94" y1="245.8738" x2="172.0345" y2="387.5292" gradientTransform="matrix(0.9951 -0.0989 0.0989 0.9951 -28.4555 14.3201)">
			<stop  offset="0" style="stop-color:#66B58A"/>
			<stop  offset="0.7208" style="stop-color:#194E8A"/>
		</linearGradient>
		<path style="fill:url(#SVGID_00000026875427326448868120000010018933870287654297_);" d="M79.033,248.168
			c8.666-8.075,11.208,0.545,20.737,0.23c9.529-0.316,14.887,2.826,18.065,13.421c3.177,10.595,13.185,3.138,23.887,16.593
			s9.475,25.155,14.997,24.606c9.38-0.932,18.815,5.319,24.742,34.297l-40.894,27.168c0,0-10.139-6.002-14.301-22.134
			c-2.425-9.4-15.678-9.146-23.902-19.748c-8.224-10.602-6.453-24.854-8.841-32.849C91.134,281.755,68.824,257.681,79.033,248.168z"
			/>
		<path style="fill:none;stroke:#FFFFFF;stroke-width:1.0571;stroke-miterlimit:10;" d="M80.665,246.789
			c0,0,39.451,70.063,83.005,102.344"/>
		<path style="fill:none;stroke:#FFFFFF;stroke-width:1.0571;stroke-miterlimit:10;" d="M93.354,250.64
			c0,0,2.254,9.476,1.179,18.631"/>
		<path style="fill:none;stroke:#FFFFFF;stroke-width:1.0571;stroke-miterlimit:10;" d="M89.41,276.881c0,0,3.289,3.323,12.53,3.412
			"/>
		<path style="fill:none;stroke:#FFFFFF;stroke-width:1.0571;stroke-miterlimit:10;" d="M111.267,258.952
			c0,0,5.315,21.745,0.196,34.664"/>
		<path style="fill:none;stroke:#FFFFFF;stroke-width:1.0571;stroke-miterlimit:10;" d="M97.723,301.372
			c0,0,8.387,6.105,22.267,3.381"/>
		<path style="fill:none;stroke:#FFFFFF;stroke-width:1.0571;stroke-miterlimit:10;" d="M130.766,274.356
			c0,0,7.171,26.132-0.246,43.106"/>
		<path style="fill:none;stroke:#FFFFFF;stroke-width:1.0571;stroke-miterlimit:10;" d="M112.869,327.664
			c0,0,12.31,5.952,27.421,0.509"/>
		<path style="fill:none;stroke:#FFFFFF;stroke-width:1.0571;stroke-miterlimit:10;" d="M153.189,304.028
			c0,0,4.19,19.987-3.355,33.54"/>
	</g>
	<g>
		
			<linearGradient id="SVGID_00000066501901611880849660000003612965666150106799_" gradientUnits="userSpaceOnUse" x1="615.4117" y1="229.547" x2="598.1461" y2="274.2968">
			<stop  offset="0" style="stop-color:#66B58A"/>
			<stop  offset="0.7208" style="stop-color:#194E8A"/>
		</linearGradient>
		<path style="fill:url(#SVGID_00000066501901611880849660000003612965666150106799_);" d="M607.053,220.405
			c9.214,0.032,9.734,10.383,7.47,18.807c-1.077,4.008,5.796,8.708,3.785,15.477c-2.011,6.77-4.299,7.057-4.425,11.709
			c-0.126,4.652,6.211,10.526-2.717,23.709c-8.928,13.183-22.955,20.635-22.955,20.635l-16.857-12.844
			c0,0,2.583-15.352,7.063-23.898c4.48-8.546,8.054-7.313,10.749-13.798c2.694-6.486-2.264-13.437,2.05-17.884
			c4.314-4.447,7.6-4.842,8.676-8.837S601.496,220.385,607.053,220.405z"/>
		
			<path style="fill:none;stroke:#FFFFFF;stroke-width:0.7928;stroke-linecap:round;stroke-linejoin:round;stroke-miterlimit:10;" d="
			M608.457,226.647c0,0,0.015,46.735-28.642,77.986"/>
		
			<line style="fill:none;stroke:#FFFFFF;stroke-width:0.7928;stroke-linecap:round;stroke-linejoin:round;stroke-miterlimit:10;" x1="603.438" y1="226.072" x2="607.928" y2="235.484"/>
		
			<path style="fill:none;stroke:#FFFFFF;stroke-width:0.7928;stroke-linecap:round;stroke-linejoin:round;stroke-miterlimit:10;" d="
			M613.609,236.135c0,0-3.595,6.815-7.088,9.596"/>
		
			<path style="fill:none;stroke:#FFFFFF;stroke-width:0.7928;stroke-linecap:round;stroke-linejoin:round;stroke-miterlimit:10;" d="
			M597.208,240.946c0,0,1.905,10.555,6.452,17.901"/>
		
			<path style="fill:none;stroke:#FFFFFF;stroke-width:0.7928;stroke-linecap:round;stroke-linejoin:round;stroke-miterlimit:10;" d="
			M615.397,254.664c0,0-5.342,8.064-13.695,10.85"/>
		
			<path style="fill:none;stroke:#FFFFFF;stroke-width:0.7928;stroke-linecap:round;stroke-linejoin:round;stroke-miterlimit:10;" d="
			M591.215,259.51c0,0,0.733,12.048,5.42,19.189"/>
		
			<path style="fill:none;stroke:#FFFFFF;stroke-width:0.7928;stroke-linecap:round;stroke-linejoin:round;stroke-miterlimit:10;" d="
			M612.625,278.848c0,0-9.949,6.135-19.592,7.106"/>
	</g>
	
		<linearGradient id="SVGID_00000105393878255447840840000014787575031950162605_" gradientUnits="userSpaceOnUse" x1="404.8901" y1="60.1284" x2="404.8901" y2="305.3696">
		<stop  offset="0" style="stop-color:#B7EBCF"/>
		<stop  offset="0.0444" style="stop-color:#A3DDCC"/>
		<stop  offset="0.126" style="stop-color:#85C8C7"/>
		<stop  offset="0.216" style="stop-color:#6BB7C4"/>
		<stop  offset="0.316" style="stop-color:#58AAC1"/>
		<stop  offset="0.4313" style="stop-color:#4AA0BF"/>
		<stop  offset="0.5757" style="stop-color:#429BBD"/>
		<stop  offset="0.8412" style="stop-color:#4099BD"/>
	</linearGradient>
	<path style="fill:url(#SVGID_00000105393878255447840840000014787575031950162605_);" d="M127.868,374.789h557.297
		c0,0-5.638-17.269-26.075-25.725c-20.437-8.457-12.685-37.969-24.665-40.126c-11.98-2.157-14.094,22.048-14.094,22.048
		s-1.409-50.544-13.39-52.526c-11.98-1.982-16.209,30.478-16.209,30.478s-2.014-37.32-12.509-47.555
		c-16.913-16.495-26.956-0.937-50.916-10.539c-23.96-9.602-33.122-19.504-46.511-42.389c-13.39-22.885-37.219-7.669-48.912-19.858
		c-11.693-12.189-11.688-31.643-27.899-32.487c-16.211-0.843-16.895,28.05-30.295,42.145c-13.4,14.094-46.08-10.606-67.795,10.201
		s-21.715,41.788-37.219,48.915c-15.504,7.128-9.161-39.384-24.665-42.203c-15.504-2.819-23.256,69.018-23.256,69.018
		s-3.524-39.343-16.209-39.382c-12.685-0.038-11.275,57.13-19.027,64.134c-7.752,7.004-16.209-10.966-26.075-4.095
		c-9.866,6.871,0,31.536-8.457,35.764C142.532,344.835,115.319,332.861,127.868,374.789z"/>
	<g>
		
			<linearGradient id="SVGID_00000179613628858541635440000006419830885586725530_" gradientUnits="userSpaceOnUse" x1="142.2375" y1="191.143" x2="167.6074" y2="270.9524">
			<stop  offset="0" style="stop-color:#66B58A"/>
			<stop  offset="0.9204" style="stop-color:#407ABD"/>
		</linearGradient>
		<path style="fill:url(#SVGID_00000179613628858541635440000006419830885586725530_);" d="M151.558,207.361
			c14.447-5.444,15.151,13.742,23.96,26.779c8.809,13.037,25.37,2.819,31.008,21.846c5.638,19.027-4.228,29.246,6.342,44.045
			c10.571,14.799,28.541,35.236,15.504,74.348h-59.196c0,0-25.473-28.285-27.836-51.444c-1.762-17.266,9.161-21.142,0-37.35
			c-9.161-16.208-9.202-35.941-0.196-45.454C141.143,240.13,140.597,211.491,151.558,207.361z"/>
		<path style="fill:none;stroke:#FFFFFF;stroke-width:1.0571;stroke-miterlimit:10;" d="M152.967,210.532
			c0,0,10.571,88.795,49.683,163.847"/>
		<path style="fill:none;stroke:#FFFFFF;stroke-width:1.0571;stroke-miterlimit:10;" d="M144.089,227.195
			c0,0,1.25,4.347,13.873,13.31"/>
		<path style="fill:none;stroke:#FFFFFF;stroke-width:1.0571;stroke-miterlimit:10;" d="M171.757,231.69
			c0,0-0.421,12.482-9.782,27.638"/>
		<path style="fill:none;stroke:#FFFFFF;stroke-width:1.0571;stroke-miterlimit:10;" d="M137.551,259.328
			c0,0,5.893,13.078,28.581,16.98"/>
		<path style="fill:none;stroke:#FFFFFF;stroke-width:1.0571;stroke-miterlimit:10;" d="M193.665,252.11
			c0,0-3.069,35.324-22.324,42.944"/>
		<path style="fill:none;stroke:#FFFFFF;stroke-width:1.0571;stroke-miterlimit:10;" d="M146.801,301.264
			c0,0,8.129,15.87,32.038,17.16"/>
		<path style="fill:none;stroke:#FFFFFF;stroke-width:1.0571;stroke-miterlimit:10;" d="M205.469,296.331
			c0,0-2.342,33.391-17.82,45.501"/>
		<path style="fill:none;stroke:#FFFFFF;stroke-width:1.0571;stroke-miterlimit:10;" d="M154.201,346.719
			c0,0,17.114,14.706,41.15,12.814"/>
	</g>
	<g>
		
			<linearGradient id="SVGID_00000031899081316429730240000008967594738589108650_" gradientUnits="userSpaceOnUse" x1="680.8815" y1="252.7152" x2="624.8563" y2="341.5097">
			<stop  offset="0" style="stop-color:#66B58A"/>
			<stop  offset="0.9204" style="stop-color:#407ABD"/>
		</linearGradient>
		<path style="fill:url(#SVGID_00000031899081316429730240000008967594738589108650_);" d="M588.762,374.789
			c0,0-4.581-25.021,4.581-39.467c9.161-14.447,19.027-8.809,22.199-27.132c3.171-18.323,7.4-23.96,18.675-28.189
			c11.275-4.228,19.288-5.903,26.427-14.561c8.281-10.042,24.665-11.514,20.437,6.809c-4.228,18.323-8.457,21.142-7.752,35.941
			c0.705,14.799-10.923,16.913-16.209,26.427c-5.285,9.514,6.695,19.034-25.722,40.172H588.762z"/>
		<path style="fill:none;stroke:#FFFFFF;stroke-width:1.0571;stroke-miterlimit:10;" d="M676.763,263.264
			c0,0-34.884,39.641-67.389,111.525"/>
		<path style="fill:none;stroke:#FFFFFF;stroke-width:1.0571;stroke-miterlimit:10;" d="M665.576,263.264
			c0,0-1.393,7.635-0.785,15.269"/>
		<path style="fill:none;stroke:#FFFFFF;stroke-width:1.0571;stroke-miterlimit:10;" d="M676.763,280.882
			c0,0-2.038,1.733-16.567,4.038"/>
		<path style="fill:none;stroke:#FFFFFF;stroke-width:1.0571;stroke-miterlimit:10;" d="M653.904,273.57
			c0,0-2.714,10.566,0.955,19.091"/>
		<path style="fill:none;stroke:#FFFFFF;stroke-width:1.0571;stroke-miterlimit:10;" d="M671.478,298.279
			c0,0-8.049,3.358-22.127,2.736"/>
		<path style="fill:none;stroke:#FFFFFF;stroke-width:1.0571;stroke-miterlimit:10;" d="M638.797,280.882
			c0,0-5.625,17.414,1.768,34.253"/>
		<path style="fill:none;stroke:#FFFFFF;stroke-width:1.0571;stroke-miterlimit:10;" d="M668.48,315.135
			c0,0-15.245,16.074-35.942,13.814"/>
		<path style="fill:none;stroke:#FFFFFF;stroke-width:1.0571;stroke-miterlimit:10;" d="M617.831,306.956
			c0,0-2.866,23.5,7.288,35.622"/>
		<path style="fill:none;stroke:#FFFFFF;stroke-width:1.0571;stroke-miterlimit:10;" d="M652.01,345.363
			c0,0-18.148,9.248-32.682,8.5"/>
		<path style="fill:none;stroke:#FFFFFF;stroke-width:1.0571;stroke-miterlimit:10;" d="M596.69,334.969
			c0,0,0.504,23.783,16.549,31.448"/>
	</g>
	<g>
		<path style="fill:#FFB637;" d="M365.603,98.18h-33.501c-1.796,0-3.52,0.7-4.809,1.95l-6.532,6.339
			c-0.413,0.401-1.105,0.108-1.105-0.467V70.82c0-3.766,3.053-6.819,6.819-6.819h39.128c3.766,0,6.819,3.053,6.819,6.819v20.541
			C372.422,95.127,369.369,98.18,365.603,98.18z"/>
		<g>
			<path style="fill:#FFFFFF;" d="M335.872,81.822c0,0.924-0.749,1.674-1.674,1.674c-0.924,0-1.674-0.749-1.674-1.674
				c0-0.924,0.749-1.674,1.674-1.674C335.123,80.148,335.872,80.898,335.872,81.822z"/>
			<path style="fill:#FFFFFF;" d="M343.766,81.822c0,0.924-0.749,1.674-1.674,1.674c-0.924,0-1.674-0.749-1.674-1.674
				c0-0.924,0.749-1.674,1.674-1.674C343.017,80.148,343.766,80.898,343.766,81.822z"/>
			<path style="fill:#FFFFFF;" d="M351.66,81.822c0,0.924-0.749,1.674-1.674,1.674c-0.924,0-1.674-0.749-1.674-1.674
				c0-0.924,0.749-1.674,1.674-1.674C350.911,80.148,351.66,80.898,351.66,81.822z"/>
			<path style="fill:#FFFFFF;" d="M359.554,81.822c0,0.924-0.749,1.674-1.674,1.674c-0.924,0-1.674-0.749-1.674-1.674
				c0-0.924,0.749-1.674,1.674-1.674C358.805,80.148,359.554,80.898,359.554,81.822z"/>
		</g>
	</g>
	<g>
		<path style="fill:#FFB637;" d="M438.431,124.16c-14.087,0-25.507,9.471-25.507,21.154c0,2.074,0.361,4.078,1.033,5.972
			c0.475,1.34,0.055,2.831-1.119,3.634l-8.053,5.512c-0.552,0.378-0.23,1.243,0.435,1.168l13.464-1.537
			c0.841-0.096,1.671,0.171,2.34,0.69c4.557,3.539,10.67,5.715,17.406,5.715c14.087,0,25.507-9.471,25.507-21.154
			S452.518,124.16,438.431,124.16z"/>
		<g>
			<path style="fill:#FFFFFF;" d="M436.108,148.812v-1.142c0-0.988,0.211-1.847,0.633-2.577c0.422-0.73,1.193-1.507,2.315-2.33
				c1.08-0.772,1.793-1.399,2.137-1.883c0.345-0.484,0.517-1.024,0.517-1.62c0-0.669-0.247-1.178-0.741-1.528
				c-0.494-0.35-1.183-0.525-2.068-0.525c-1.543,0-3.302,0.504-5.278,1.512l-1.682-3.38c2.294-1.286,4.727-1.929,7.299-1.929
				c2.119,0,3.804,0.509,5.054,1.528c1.25,1.019,1.875,2.377,1.875,4.074c0,1.132-0.257,2.109-0.772,2.932
				c-0.514,0.823-1.492,1.749-2.932,2.778c-0.988,0.73-1.613,1.286-1.875,1.667c-0.262,0.381-0.394,0.88-0.394,1.497v0.926H436.108z
				 M435.614,154.09c0-0.864,0.232-1.518,0.694-1.96c0.463-0.442,1.137-0.664,2.022-0.664c0.854,0,1.515,0.226,1.983,0.679
				s0.702,1.101,0.702,1.945c0,0.813-0.237,1.453-0.71,1.921c-0.473,0.468-1.132,0.702-1.975,0.702
				c-0.864,0-1.533-0.229-2.006-0.687C435.851,155.568,435.614,154.923,435.614,154.09z"/>
		</g>
	</g>
	<g>
		<path style="fill:#CD794F;" d="M242.696,154.447l-12.242,13.866c0,0-21.942-20.055-23.746-22.299
			c-1.803-2.244-1.446-6.174-6.938-8.026c-2.016-0.68-5.247-1.446-5.788-0.297c-0.542,1.149,3.005,0.444,3.687,2.034
			s-1.031,2.647-2.7,2.806c-1.669,0.159-4.703-1.082-4.703-1.082s-2.713-3.871-3.423-3.855c-0.71,0.017,0.066,2.84,1.571,4.576
			c1.505,1.736,4.649,2.515,4.649,2.515s-4.335,0.288-5.564-0.241c-1.23-0.53-2.616-3.262-3.361-2.884
			c-0.745,0.378,0.101,2.479,1.942,4.075c1.84,1.597,5.852,1.623,5.852,1.623s-3.93,1.119-5.554,0.381s-2.53-0.247-2.527,0.376
			c0.003,0.623,1.005,1.365,3.696,1.499c2.692,0.134,5.541-0.468,5.541-0.468s-4.223,2.142-5.456,2.236s-1.997,1.544-0.738,1.624
			s4.747-1.455,6.741-1.982c1.543-0.408,3.915,0.576,8.072-0.221c0,0,14.537,34.568,27.35,43.178
			c10.093,6.782,35.259-23.412,35.259-23.412L242.696,154.447z"/>
		
			<path style="fill:none;stroke:#BF5521;stroke-width:0.7647;stroke-linecap:round;stroke-linejoin:round;stroke-miterlimit:10;" d="
			M230.454,168.313c0,0,2.114,1.947,3.711,5.172"/>
		<path style="fill:#BF5521;" d="M264.315,170.468l-21.619-16.021l-3.369,3.816c1.74,1.037,4.223,2.871,5.878,5.631
			c2.445,4.077,5.594,12.408,11.379,14.999C261.131,174.283,264.315,170.468,264.315,170.468z"/>
		<path style="fill:#307871;" d="M298.465,116.243c4.486-1.322,9.383-2.823,13.202-3.404c3.82-0.581,4.217-0.062,9.881,1.079
			c10.047,2.025,23.316,0.584,28.895,5.314c8.677,7.356,12.641,22.017,13.963,25.918c0,0-3.964,8.526-13.874,11.037
			c-9.91,2.511-8.944,2.378-8.944,2.378l4.451,51.797h-69.239c0,0-3.295-10.345-1.321-19.82c0.661-3.171-2.51-14.799-2.114-23.52
			l-9.91,12.39c0,0-10.174-11.333-13.478-15.165c-3.303-3.832-10.967-10.571-10.967-10.571s5.55-7.4,10.174-12.949
			c4.625-5.55,10.703-17.045,20.349-20.349C279.179,117.075,293.663,117.658,298.465,116.243z"/>
		
			<linearGradient id="SVGID_00000160165635687656046720000007458679770956772009_" gradientUnits="userSpaceOnUse" x1="259.7614" y1="159.1004" x2="273.9933" y2="159.1004">
			<stop  offset="0" style="stop-color:#1E4A45;stop-opacity:0"/>
			<stop  offset="0.9568" style="stop-color:#1E4A45"/>
		</linearGradient>
		<path style="fill:url(#SVGID_00000160165635687656046720000007458679770956772009_);" d="M263.455,179.412l9.91-12.39
			c0.264-5.946,0.705-13.17,0.617-17.134c-0.088-3.964-1.938-11.099-2.907-11.099c-0.969,0,0.705,8.985-1.85,14.711
			c-2.555,5.726-4.14,6.342-5.55,13.037c-0.691,3.281-2.375,6.409-3.914,8.751C261.875,177.652,263.455,179.412,263.455,179.412z"/>
		
			<path style="fill:none;stroke:#1D4743;stroke-width:0.7647;stroke-linecap:round;stroke-linejoin:round;stroke-miterlimit:10;" d="
			M329.787,125.928c0,0-5.418,3.649-3.832,14.245"/>
		
			<path style="fill:none;stroke:#1D4743;stroke-width:0.7647;stroke-linecap:round;stroke-linejoin:round;stroke-miterlimit:10;" d="
			M323.048,129.496c0,0-0.793,1.586,0.793,8.721"/>
		
			<linearGradient id="SVGID_00000134959387054929457080000006302235306858598036_" gradientUnits="userSpaceOnUse" x1="332.6037" y1="196.2715" x2="341.0604" y2="156.1025">
			<stop  offset="0" style="stop-color:#1E4A45;stop-opacity:0"/>
			<stop  offset="0.9568" style="stop-color:#1E4A45"/>
		</linearGradient>
		<path style="fill:url(#SVGID_00000134959387054929457080000006302235306858598036_);" d="M346.039,210.362l-3.437-39.992
			l-9.697-15.904l-2.59,0.038l-3.7-7.699c0,0-0.925,5.814,2.246,11.232c3.171,5.417,1.85,10.307-0.396,16.737
			c-2.246,6.431-0.661,11.54,0.529,17.75c0.98,5.117,0.435,14.641,0.213,17.838H346.039z"/>
		<g>
			<path style="fill:#16367C;" d="M307.379,101.047c0,0-0.166-3.711-0.423-8.535c-0.257-4.824-6.875-6.123-11.885-5.752
				c-5.01,0.371-13.797,5.766-6.898,12.284l13.702,3.117L307.379,101.047z"/>
			<path style="fill:#CD794F;" d="M297.957,93.811c0,0,0.907,3.381,3.216,4.288c2.309,0.907,1.072,2.969,2.309,3.464
				c1.237,0.495,1.567-2.062,2.227-3.876c0.66-1.814,1.979-2.556,3.629-1.484c1.649,1.072,1.155,4.866-0.825,5.773l6.986,11.251
				c0.469,0.756,1.234,1.293,2.114,1.425c0.648,0.097,1.384,0.326,1.786,0.848c0.825,1.072-3.464,5.773-11.545,5.773
				s-10.556-2.721-9.896-3.134c0.382-0.238,1.342-0.422,2.084-0.534c0.493-0.074,0.791-0.583,0.612-1.048l-1.295-3.366
				c0,0-4.179,1.757-5.525,0.825c-2.144-1.484-3.216-10.391-3.216-10.391s-2.721-3.711-3.629-8.576L297.957,93.811z"/>
			<path style="fill:#BF5521;" d="M306.328,104.325c0,0-1.196,7.278-6.968,8.865l1.033,2.686c0,0,1.915,0.386,3.152-1.778
				c1.237-2.165,0.804-2.227,2.165-4.268C307.07,107.789,307.379,102.965,306.328,104.325z"/>
		</g>
		<g>
			<polygon style="fill:#CD794F;" points="290.279,381.392 290.807,391.522 280.501,391.522 280.941,381.392 			"/>
			<polygon style="fill:#CD794F;" points="338.555,381.392 339.083,391.522 328.777,391.522 329.217,381.392 			"/>
			<path style="fill:#BF5521;" d="M280.104,386.457c0,0,4.162,0.22,5.021,1.475c0.859,1.255-0.049,1.713,2.775,1.85s3.832,0,3.832,0
				l0.925,10.042c0,0-22.859,0-25.832,0c-1.599,0-2.261-1.185-2.532-2.28c-0.241-0.972,0.307-1.964,1.265-2.255l4.637-1.411
				l8.457-3.766L280.104,386.457z"/>
			<path style="fill:#471312;" d="M264.775,395.774c-0.442,0.453-0.646,1.114-0.483,1.772c0.271,1.095,0.934,2.28,2.532,2.28
				c2.973,0,25.832,0,25.832,0l-0.225-2.445h-22.878c-0.786,0-1.543-0.249-2.216-0.655
				C266.275,396.085,265.357,395.856,264.775,395.774z"/>
			<path style="fill:#BF5521;" d="M329.985,388.699c0,0,2.577-2.709,7.532,0l1.356-2.241c0,0,1.518,3.338,1.674,10.092
				c0.009,0.404-0.154,0.799-0.446,1.079c-0.319,0.305-0.736,0.743-1.017,1.179c-0.51,0.793,0.985,4.439-3.97,4.879
				c-3.4,0.302-6.428,0.692-8.674-0.629c-1.538-0.904-1.982-4.25,0.484-7.708c2.283-3.201,1.174-4.537,1.853-7.708L329.985,388.699z
				"/>
			<path style="fill:#471312;" d="M335.114,403.686c4.955-0.441,3.46-4.087,3.97-4.879c0.28-0.436,0.698-0.873,1.017-1.179
				c0.292-0.28,0.455-0.674,0.446-1.079c-0.012-0.538-0.036-1.046-0.064-1.541c-0.611,0.503-1.309,1.14-1.776,1.773
				c-0.991,1.344-0.492,2.992-1.52,3.479c-4.41,2.09-9.642,0.725-12.006-0.099c-0.005,1.381,0.491,2.444,1.259,2.896
				C328.686,404.379,331.714,403.988,335.114,403.686z"/>
			<path style="fill:#0E3B91;" d="M276.801,207.371c0,0-4.14,55.276-4.493,85.623c-0.352,30.347,3.083,64.259,2.246,73.201
				c-0.837,8.942,0.925,10.616,5.506,12.422v4.272h10.923v-4.272c0,0,7.047,0.044,8.104-7.708
				c1.057-7.752,3.832-32.417,2.621-37.702c0,0,3.678-13.037,0-26.075c0,0,5.836-50.123,6.188-64.878c0,0,4.581,51.136,8.457,81.791
				c3.876,30.655,3.092,53.322,11.588,53.969v4.875h12.02v-4.875c0,0,6.461-3.188,6.754-15.189
				c0.293-12.001-3.23-35.609-3.23-35.609s3.153-7.785,0.352-15.504c0,0,3.256-86.798-0.705-104.342L276.801,207.371z"/>
			
				<linearGradient id="SVGID_00000129893950057097715360000017822970941449501835_" gradientUnits="userSpaceOnUse" x1="328.777" y1="369.1478" x2="328.777" y2="275.3903">
				<stop  offset="0" style="stop-color:#1D134F;stop-opacity:0"/>
				<stop  offset="1" style="stop-color:#1D134F"/>
			</linearGradient>
			<path style="fill:url(#SVGID_00000129893950057097715360000017822970941449501835_);" d="M346.72,360.079
				c-0.2-12.517-3.235-32.862-3.235-32.862s3.153-7.785,0.352-15.504c0,0,0.657-17.52,1.022-38.407h-34.025
				c1.606,16.304,3.645,35.916,5.52,50.74c0.254,2.009,0.488,3.983,0.705,5.918c0.605,5.382,4.036,10.002,8.971,12.233
				C332.665,345.197,340.798,350.577,346.72,360.079z"/>
		</g>
	</g>
	<g>
		<path style="fill:#FFB637;" d="M209.692,184.041l-6.886-2.971c-1.558-0.672-2.567-2.207-2.567-3.903v-5.315
			c0-2.53-2.051-4.582-4.582-4.582H154.74c-2.531,0-4.582,2.051-4.582,4.582v25.326c0,2.53,2.051,4.582,4.582,4.582h40.917
			c2.53,0,4.582-2.051,4.582-4.582v-5.315c0-1.697,1.009-3.231,2.567-3.903l6.886-2.971
			C210.106,184.807,210.106,184.22,209.692,184.041z"/>
		<g>
			<circle style="fill:#FFFFFF;" cx="187.039" cy="185.09" r="1.674"/>
			<path style="fill:#FFFFFF;" d="M177.472,185.09c0,0.924,0.749,1.674,1.674,1.674c0.924,0,1.674-0.749,1.674-1.674
				c0-0.924-0.749-1.674-1.674-1.674C178.221,183.417,177.472,184.166,177.472,185.09z"/>
			<circle style="fill:#FFFFFF;" cx="171.251" cy="185.09" r="1.674"/>
			<circle style="fill:#FFFFFF;" cx="163.357" cy="185.09" r="1.674"/>
		</g>
	</g>
	<g>
		<g>
			<polygon style="fill:#804D28;" points="606.543,406.638 594.562,406.638 582.43,313.91 594.41,313.91 			"/>
			<polygon style="fill:#804D28;" points="202.542,406.638 214.522,406.638 226.654,313.91 214.674,313.91 			"/>
		</g>
		<g>
			<rect x="576.686" y="278.228" style="fill:#804D28;" width="11.564" height="27.27"/>
			<rect x="220.834" y="278.228" style="fill:#804D28;" width="11.564" height="27.27"/>
		</g>
		<rect x="203.796" y="303.301" style="fill:#5C381D;" width="401.492" height="11.273"/>
		<rect x="214.598" y="208.454" style="fill:#5C381D;" width="379.889" height="72.867"/>
		<g>
			
				<line style="fill:none;stroke:#AB6736;stroke-width:1.0571;stroke-miterlimit:10;" x1="214.623" y1="219.923" x2="594.225" y2="219.923"/>
			
				<line style="fill:none;stroke:#AB6736;stroke-width:1.0571;stroke-miterlimit:10;" x1="214.623" y1="232.405" x2="594.225" y2="232.405"/>
			
				<line style="fill:none;stroke:#AB6736;stroke-width:1.0571;stroke-miterlimit:10;" x1="214.623" y1="244.887" x2="594.225" y2="244.887"/>
			
				<line style="fill:none;stroke:#AB6736;stroke-width:1.0571;stroke-miterlimit:10;" x1="214.623" y1="257.369" x2="594.225" y2="257.369"/>
			
				<line style="fill:none;stroke:#AB6736;stroke-width:1.0571;stroke-miterlimit:10;" x1="214.623" y1="269.851" x2="594.225" y2="269.851"/>
		</g>
	</g>
	<g>
		<path style="fill:#80A2E8;" d="M524.441,379.379c0,0-3.92,22.331-4.184,27.088c-0.264,4.757,1.321,9.25,0,11.099
			c-1.321,1.85-13.801,8.894-15.724,8.324c-3.568-1.057,6.21-11.364,6.21-11.364l1.982-6.739l-0.044-28.409H524.441z"/>
		<path style="fill:#80A2E8;" d="M541.165,379.379c0,0,0.219,21.061-0.281,27.088c-0.395,4.748-1.321,9.25,0,11.099
			c1.321,1.85,13.801,8.894,15.724,8.324c3.568-1.057-6.21-11.364-6.21-11.364l-1.982-6.739l4.51-28.409H541.165z"/>
		<path style="fill:#0A2863;" d="M567.433,287.281c-2.078-6.159-7.136-14.623-7.136-14.623l-20.979,2.128
			c-0.491,0.05-0.985,0.05-1.475,0l-20.979-2.128c0,0-5.058,8.464-7.136,14.623c-2.078,6.159-0.573,15.944-0.573,15.944h29.425
			h29.426C568.007,303.225,569.511,293.44,567.433,287.281z"/>
		<path style="fill:#14213B;" d="M533.866,155.939c7.796,0,14.799,1.85,15.856,8.06c1.057,6.21,0,8.721,1.982,15.063
			s8.324,10.703,1.718,14.667c-6.607,3.964-23.652,4.096-29.73,0c-6.078-4.096-0.661-11.231-0.661-18.367
			S523.427,155.939,533.866,155.939z"/>
		<path style="fill:#80A2E8;" d="M544.882,195.489c-1.321-5.065-2.16-9.866-0.992-14.711l-5.309,2.026l-5.308-2.026
			c1.168,4.845,0.329,9.646-0.992,14.711c-0.773,2.961-2.67,4.828-3.672,5.642c-0.394,0.32-0.476,0.88-0.234,1.326
			c1.892,3.483,5.422,4.697,10.206,4.697c4.784,0,8.315-1.214,10.206-4.697c0.242-0.446,0.16-1.006-0.234-1.326
			C547.552,200.318,545.654,198.451,544.882,195.489z"/>
		<path style="fill:#6188D9;" d="M543.768,190.39c-0.537-3.243-0.648-6.419,0.122-9.612l-5.309,2.026l-5.308-2.026
			c0.552,2.291,0.645,4.572,0.462,6.875C536.077,189.714,540.37,192.665,543.768,190.39z"/>
		<path style="fill:#80A2E8;" d="M533.073,164.924c0,0,1.845,3.734,9.249,5.462c2.643,0.617,2.643,4.581,2.643,6.783
			c0,2.202-1.674,9.514-5.946,10.042c-4.272,0.529-7.708-5.814-7.884-9.249c0,0-2.114,0.705-2.29-1.233s-0.617-3.612,0.352-3.612
			s1.674,1.674,1.674,1.674l0.352-3.788C531.224,171.002,533.25,168.007,533.073,164.924z"/>
		<path style="fill:#3361BA;" d="M559.987,238.391l17.92-5.947c0.993-0.329,1.562-1.365,1.326-2.385
			c-2.781-12.007-7.334-18.945-12.287-21.884c-5.197-3.083-15.856-8.104-16.395-8.104c-0.135,0-0.267,0.088-0.391,0.22
			c-0.774,0.829-1.677,1.527-2.754,1.883l-8.826,2.918l-8.825-2.918c-1.077-0.356-1.98-1.054-2.754-1.883
			c-0.123-0.132-0.256-0.22-0.391-0.22c-0.539,0-11.197,5.021-16.395,8.104c-4.953,2.938-9.506,9.877-12.287,21.884
			c-0.236,1.019,0.333,2.055,1.326,2.385l17.92,5.947c0,0,0,26.427,0,30.391c0,3.964-4.091,6.011,5.55,7.664
			c5.551,0.952,12.157,0.942,15.856,0.661c3.699,0.282,10.305,0.291,15.856-0.661c9.641-1.653,5.55-3.7,5.55-7.664
			C559.987,264.818,559.987,238.391,559.987,238.391z"/>
		
			<linearGradient id="SVGID_00000034778529649860469780000009816892248823202444_" gradientUnits="userSpaceOnUse" x1="538.5812" y1="175.024" x2="538.5812" y2="225.3451">
			<stop  offset="0" style="stop-color:#FFFFFF;stop-opacity:0"/>
			<stop  offset="0.9891" style="stop-color:#FFFFFF;stop-opacity:0.6"/>
		</linearGradient>
		<polygon style="fill:url(#SVGID_00000034778529649860469780000009816892248823202444_);" points="538.581,174.469 
			504.906,174.469 530.066,243.016 538.581,243.016 547.096,243.016 572.256,174.469 		"/>
		<g>
			<path style="fill:#FFFFFF;" d="M544.634,248.334h-12.106c-1.168,0-2.177-0.954-2.255-2.152l-1.868-28.662
				c-0.12-1.834,0.987-3.353,2.473-3.353h15.406c1.487,0,2.593,1.519,2.473,3.353l-1.867,28.662
				C546.812,247.379,545.803,248.334,544.634,248.334z"/>
			<g>
				<path d="M533.117,217.382c0,0.675-0.547,1.222-1.222,1.222s-1.222-0.547-1.222-1.222c0-0.675,0.547-1.222,1.222-1.222
					S533.117,216.706,533.117,217.382z"/>
				<path d="M536.996,218.086h-2.16c-0.389,0-0.705-0.316-0.705-0.705l0,0c0-0.389,0.315-0.705,0.705-0.705h2.16
					c0.389,0,0.705,0.316,0.705,0.705l0,0C537.7,217.771,537.385,218.086,536.996,218.086z"/>
			</g>
		</g>
		<path style="fill:none;stroke:#234280;stroke-width:0.7928;stroke-miterlimit:10;" d="M520.526,242.931c0,0,1.448,0.51,1.712,0
			c0.264-0.51,2.114-14.649,2.114-14.649"/>
		<path style="fill:none;stroke:#234280;stroke-width:0.7928;stroke-miterlimit:10;" d="M556.575,242.931c0,0-1.448,0.51-1.712,0
			c-0.264-0.51-2.114-14.649-2.114-14.649"/>
		<path style="fill:#234280;" d="M538.581,277.107c3.699,0.282,10.305,0.291,15.856-0.661c9.641-1.653,5.55-3.7,5.55-7.664
			c0-2.11,0-10.584,0-18.049c-7.271-1.148-9.948,7.078-17.312,11.178c-6.688,3.724-21.543,4.601-25.5,4.772c0,0.928,0,1.659,0,2.099
			c0,3.964-4.091,6.011,5.55,7.664C528.276,277.397,534.882,277.388,538.581,277.107z"/>
		<path style="fill:#0E3B91;" d="M523.736,282.082c19.38-0.02,16.032,24.313,13.213,47.04c-2.819,22.727-4.933,34.707-4.933,34.707
			s1.057,6.871-2.819,17.442c0,0-9.426,1.644-20.965,0c0,0-4.581-13.918-0.705-26.956c0,0,0.743-40.282,1.72-52.316
			C510.522,286.31,517.56,282.089,523.736,282.082z"/>
		<path style="fill:#0A2863;" d="M506.912,375.774c0.621,3.366,1.32,5.497,1.32,5.497c11.54,1.644,20.965,0,20.965,0
			c0.754-2.057,1.317-3.968,1.742-5.721C520.875,376.883,511.037,376.185,506.912,375.774z"/>
		<path style="fill:#0A2863;" d="M520.256,417.566c0.961-1.346,0.385-4.093,0.101-7.32l-4.462,1.308l-3.769-1.732l-1.384,4.705
			c0,0-9.778,10.306-6.21,11.364C506.456,426.46,518.935,419.416,520.256,417.566z"/>
		<path style="fill:#0E3B91;" d="M555.581,282.082c-19.376-0.02-15.848,24.313-17.109,47.04s-1.298,34.707-1.298,34.707
			s-2.291,6.871-0.313,17.442c0,0,9.13,1.644,20.965,0c0,0,7.079-13.918,5.544-26.956c0,0,6.186-36.41,7.235-48.456
			C572.248,287.015,561.756,282.089,555.581,282.082z"/>
		<path style="fill:#0A2863;" d="M548.869,409.332l-4.964,2.882l-3.434-1.717c-0.332,3.116-0.524,5.758,0.412,7.068
			c1.321,1.85,13.801,8.894,15.724,8.324c3.568-1.057-6.21-11.364-6.21-11.364L548.869,409.332z"/>
		<path style="fill:#6188D9;" d="M500.429,275.563c-0.721-5.284-3.892-8.014,1.638-42.105l15.939,5.234
			c1.782,0.585,2.858,2.395,2.521,4.24l-4.962,27.172L500.429,275.563z"/>
		<path style="fill:#6188D9;" d="M576.734,275.563c0.721-5.284,3.892-8.014-1.637-42.105l-15.939,5.234
			c-1.782,0.585-2.858,2.395-2.521,4.24l4.962,27.172L576.734,275.563z"/>
		<path style="fill:#80A2E8;" d="M530.429,243.016c2.026-1.784,1.542-7.069,1.542-7.069s3.039-0.727,3.117-1.321
			c0.078-0.595-4.108,0.132-4.108,0.132s4.36-2.048,4.096-2.511c-0.264-0.462-4.096,0.793-4.096,0.793s3.766-4.559,2.907-4.823
			c-0.859-0.264-3.832,3.303-3.832,3.303s2.378-6.673,1.321-6.276c-1.057,0.396-2.973,6.21-3.502,8.523
			c-0.528,2.312-0.991,7.532-0.991,7.532s-15.688,14.512-22.859,24.225c-11.187,15.151,6.431,21.846,11.452,11.75
			C523.242,261.657,525.695,254.335,530.429,243.016z"/>
		<path style="fill:#80A2E8;" d="M546.733,243.016c-2.026-1.784-1.542-7.069-1.542-7.069s-3.039-0.727-3.117-1.321
			c-0.078-0.595,4.108,0.132,4.108,0.132s-4.36-2.048-4.096-2.511c0.264-0.462,4.096,0.793,4.096,0.793s-3.766-4.559-2.907-4.823
			c0.859-0.264,3.832,3.303,3.832,3.303s-2.378-6.673-1.321-6.276c1.057,0.396,2.973,6.21,3.502,8.523
			c0.529,2.312,0.991,7.532,0.991,7.532s15.688,14.512,22.859,24.225c11.187,15.151-6.431,21.846-11.452,11.75
			C553.92,261.657,551.468,254.335,546.733,243.016z"/>
		
			<path style="fill:none;stroke:#0A2863;stroke-width:0.7928;stroke-linecap:round;stroke-linejoin:round;stroke-miterlimit:10;" d="
			M530.034,353.611c0,0-2.907,7.532-5.946,8.457c-3.039,0.925,1.189-4.228,1.189-4.228"/>
		
			<line style="fill:none;stroke:#0A2863;stroke-width:0.7928;stroke-linecap:round;stroke-linejoin:round;stroke-miterlimit:10;" x1="530.034" y1="360.218" x2="526.512" y2="366.957"/>
		
			<path style="fill:#0E3B91;stroke:#0A2863;stroke-width:0.7928;stroke-linecap:round;stroke-linejoin:round;stroke-miterlimit:10;" d="
			M561.81,355.329c0,0-5.95,13.214-8.392,12.553c-2.443-0.661,3.239-6.264,3.239-6.264"/>
		
			<path style="fill:#0E3B91;stroke:#0A2863;stroke-width:0.7928;stroke-linecap:round;stroke-linejoin:round;stroke-miterlimit:10;" d="
			M558.506,340.794c0,0-10.571,22.727-19.424,25.37"/>
		<path style="fill:#0A2863;" d="M560.133,375.774c-1.225,3.366-2.307,5.497-2.307,5.497c-11.835,1.644-20.965,0-20.965,0
			c-0.385-2.057-0.605-3.968-0.715-5.721C545.971,376.883,555.935,376.185,560.133,375.774z"/>
	</g>
	<g>
		<path style="fill:#D97E7E;" d="M413.792,393.02l-1.85,9.514c0,0,2.995,6.166,13.037,4.404c0,0,0.724-9.602,1.693-13.918H413.792z"
			/>
		<path style="fill:#16367C;" d="M410.248,401.98c0.345-0.817,1.414-1.054,2.097-0.488c1.647,1.365,5.15,3.53,11.136,3.948
			c0.609,0.043,1.035-0.273,1.324-0.649c0.477-0.621,1.334-0.804,2.063-0.515c4.957,1.961,20.193,8.283,20.045,11.824
			c-0.176,4.228-3.347,5.462-8.985,5.726c-5.638,0.264-8.104-1.321-12.597-2.29c-4.493-0.969-4.493,0.793-9.249,0.176
			c-3.291-0.427-5.402-2.203-6.39-3.257c-0.424-0.452-0.573-1.091-0.403-1.687l0.619-2.166
			C409.909,412.602,408.493,406.143,410.248,401.98z"/>
		<path style="fill:#0A2863;" d="M431.036,417.421c-4.162-0.661-5.351-2.114-11.43-1.982c-6.078,0.132-9.697-2.837-9.697-2.837
			l-0.619,2.166c-0.17,0.596-0.021,1.234,0.403,1.687c0.988,1.054,3.099,2.83,6.39,3.257c4.757,0.617,4.757-1.145,9.249-0.176
			c4.493,0.969,6.959,2.555,12.597,2.29c5.638-0.264,8.809-1.497,8.985-5.726C441.717,418.874,435.198,418.082,431.036,417.421z"/>
		<path style="fill:#D97E7E;" d="M463.177,291.276l1.622,4.555c0.438,1.23,1.183,2.327,2.165,3.188l3.678,3.224
			c0,0,3.47,1.824,2.413,7.99c-0.405,2.362-1.069,1.127-1.246-0.899c-0.176-2.026-1.674-5.197-1.674-5.197s0.528,4.933-0.088,7.135
			c-0.617,2.202-2.29,2.819-2.202,1.938c0.088-0.881,1.145-5.814-0.484-8.897c0,0,0.308,7.82-1.63,9.284s-0.352-2.589-0.352-4.35
			c0-1.762-0.088-4.14-1.145-5.374c0,0,0.705,6.166-0.617,8.104c-1.321,1.938-0.881-2.026-0.881-3.435
			c0-0.445-0.167-1.128-0.396-1.853c-0.63-2.001-2.51-3.344-4.607-3.344h-1.931c0,0,0.352-1.85,1.145-3.171
			c0.793-1.321-2.467-8.897-2.467-8.897H463.177z"/>
		<path style="fill:#D97E7E;" d="M334.191,291.276l1.148,4.797c0.24,1.005-0.095,2.06-0.872,2.741l-3.912,3.429
			c0,0-3.47,1.824-2.413,7.99c0.405,2.362,1.07,1.127,1.246-0.899c0.176-2.026,1.674-5.197,1.674-5.197s-0.529,4.933,0.088,7.135
			c0.617,2.202,2.29,2.819,2.202,1.938c-0.088-0.881-1.145-5.814,0.484-8.897c0,0-0.308,7.82,1.63,9.284
			c1.938,1.464,0.352-2.589,0.352-4.35c0-1.762,0.088-4.14,1.145-5.374c0,0-0.705,6.166,0.617,8.104
			c1.321,1.938,0.881-2.026,0.881-3.435c0-0.445,0.167-1.128,0.396-1.853c0.63-2.001,2.51-3.344,4.607-3.344h1.931
			c0,0-0.352-1.85-1.145-3.171c-0.793-1.321-1.363-8.897-1.363-8.897H334.191z"/>
		<path style="fill:#FFB637;" d="M386.208,177.848c0,0,7.62,0.075,12.861,0c5.241-0.075,12.377-0.075,25.062,0.718
			c12.685,0.793,22.199,22.595,26.955,38.451c4.757,15.856,17.97,74.921,17.97,74.921H446.33c0,0-9.382-30.655-10.571-33.827
			c-1.189-3.171-1.057-6.739-1.057-6.739s-3.435-2.907-2.51-5.814l-4.493-11.231c0,0-2.246,7.597-1.586,13.246
			c0.661,5.649-1.718,8.953-1.718,8.953s-0.925,4.757,1.718,7.796s0.529,10.042,0.529,10.042h-65.671c0,0-3.435-8.589,0-16.12
			c0,0-2.261-6.607-1.527-11.232l-4.551-19.688l-7.003,26.955c0,0,1.586,26.295,1.057,36.205h-20.745c0,0-6.739-31.712-5.55-43.737
			c1.189-12.024,7.664-30.457,8.853-34.058c1.189-3.601,4.449-24.698,14.094-29.587
			C355.245,178.213,380.757,177.848,386.208,177.848z"/>
		
			<linearGradient id="SVGID_00000036937230131541513140000007574294288789337233_" gradientUnits="userSpaceOnUse" x1="338.5381" y1="245.5877" x2="354.8924" y2="245.5877">
			<stop  offset="0" style="stop-color:#997122;stop-opacity:0"/>
			<stop  offset="0.9611" style="stop-color:#997122"/>
		</linearGradient>
		<path style="fill:url(#SVGID_00000036937230131541513140000007574294288789337233_);" d="M348.286,214.066
			c-0.661,5.99-0.396,14.315-3.964,19.071c-3.568,4.757-0.661,10.307-1.586,16.12c-0.925,5.814-0.529,7.267-3.436,13.478
			c-2.907,6.21,3.436,19.027,3.436,19.027l6.3,0.959c-0.144-11.795-1.147-28.443-1.147-28.443l7.003-26.955
			c0,0-2.539-7.311-2.775-16.01C351.986,206.446,348.946,208.075,348.286,214.066z"/>
		<path style="fill:#FFD996;" d="M446.833,292.994h20.931c1.462,0,2.535-1.368,2.178-2.785c-0.515-2.045-1.29-5.114-2.244-8.863
			c-0.253-0.995-1.15-1.697-2.177-1.697h-21.734c-1.542,0-2.623,1.522-2.121,2.98c1.303,3.781,2.422,7.041,3.042,8.851
			C445.021,292.386,445.874,292.994,446.833,292.994z"/>
		<path style="fill:#FFD996;" d="M328.727,291.541h19.617c0.72,0,1.314-0.564,1.339-1.284c0.087-2.518,0.067-5.78-0.013-9.298
			c-0.017-0.727-0.612-1.31-1.339-1.31h-21.485c-0.841,0-1.473,0.771-1.314,1.597c0.816,4.243,1.536,7.626,1.889,9.248
			C327.555,291.109,328.098,291.541,328.727,291.541z"/>
		
			<linearGradient id="SVGID_00000101794807864884013140000017128716926324448693_" gradientUnits="userSpaceOnUse" x1="451.4491" y1="250.2676" x2="418.1511" y2="250.9723">
			<stop  offset="0" style="stop-color:#997122;stop-opacity:0"/>
			<stop  offset="0.9611" style="stop-color:#997122"/>
		</linearGradient>
		<path style="fill:url(#SVGID_00000101794807864884013140000017128716926324448693_);" d="M432.191,245.558
			c-0.925,2.907,2.51,5.814,2.51,5.814s-0.132,3.568,1.057,6.739c0.883,2.353,6.275,19.838,8.999,28.701
			c2.739-0.485,5.239-1.791,6.065-4.785c2.114-7.664-8.06-28.673-7.4-31.977c0.661-3.303-4.493-7.4-3.171-12.288
			c1.321-4.889-5.417-12.288-6.871-18.103c-1.453-5.814-3.435-7.135-3.303-2.775c0.132,4.361-0.925,9.646-2.378,17.442
			L432.191,245.558z"/>
		
			<path style="fill:none;stroke:#C9810C;stroke-width:0.7928;stroke-linecap:round;stroke-linejoin:round;stroke-miterlimit:10;" d="
			M351.193,185.568c0,0-1.321,1.85-0.661,4.36c0.661,2.511-1.85,9.778,0.661,16.913"/>
		
			<path style="fill:none;stroke:#C9810C;stroke-width:0.7928;stroke-linecap:round;stroke-linejoin:round;stroke-miterlimit:10;" d="
			M346.039,194.289c0,0-0.038,7.135,4.011,13.081"/>
		
			<path style="fill:none;stroke:#C9810C;stroke-width:0.7928;stroke-linecap:round;stroke-linejoin:round;stroke-miterlimit:10;" d="
			M432.191,186.626c0.661,2.511,0.264,3.039,0,6.078c-0.264,3.039,1.718,11.76-1.189,19.16"/>
		
			<path style="fill:none;stroke:#C9810C;stroke-width:0.7928;stroke-linecap:round;stroke-linejoin:round;stroke-miterlimit:10;" d="
			M436.42,196.932c0,0,1.738,7.994-4.615,15.757"/>
		
			<linearGradient id="SVGID_00000026869602703073196490000011241974735064806079_" gradientUnits="userSpaceOnUse" x1="397.2501" y1="255.8614" x2="338.5675" y2="255.8614">
			<stop  offset="0" style="stop-color:#997122;stop-opacity:0"/>
			<stop  offset="0.9611" style="stop-color:#997122"/>
		</linearGradient>
		<path style="fill:url(#SVGID_00000026869602703073196490000011241974735064806079_);" d="M366.124,246.615
			c-3.282-2.159-6.836-6.5-8.911-9.255l2.231,9.651c-0.734,4.625,1.527,11.232,1.527,11.232c-3.435,7.532,0,16.12,0,16.12h42.623
			c-8.151-1.721-15.059-5.171-20.124-9.365c-1.753-1.451-3.752-2.575-5.912-3.291C367.805,258.477,370.706,249.63,366.124,246.615z"
			/>
		<path style="fill:#3C36A8;" d="M377.636,272.513c0,0,9.841,1.586,18.148,1.586c8.307,0,23.454-2.73,30.594-3.744
			c7.484-1.063,10.221-1.985,19.82-0.661c11.496,1.586,16.253,13.742,9.58,43.34c-6.673,29.598-10.108,41.091-12.487,50.408
			c-2.378,9.317-11.099,30.723-11.099,30.723h-21.67l7.55-86.416c0,0-3.058-2.472-4.115-4.54h-36.321V272.513z"/>
		
			<linearGradient id="SVGID_00000071552528340261619490000005673426377070480820_" gradientUnits="userSpaceOnUse" x1="484.6352" y1="288.3942" x2="363.7676" y2="288.3942">
			<stop  offset="0" style="stop-color:#382018;stop-opacity:0"/>
			<stop  offset="1" style="stop-color:#382018"/>
		</linearGradient>
		<path style="fill:url(#SVGID_00000071552528340261619490000005673426377070480820_);" d="M446.198,269.694
			c-9.599-1.324-12.336-0.402-19.82,0.661c-7.139,1.013-22.287,3.744-30.594,3.744c-8.307,0-18.148-1.586-18.148-1.586v30.697
			h32.298c2.273,0,4.433,0.948,6.014,2.581c1.079,1.115,2.124,1.959,2.124,1.959c2.58-11.804,16.674-33.474,29.888-32.769
			c7.685,0.41,10.104,10.188,10.785,18.3C459.495,277.812,454.687,270.865,446.198,269.694z"/>
		
			<path style="fill:none;stroke:#2D1D59;stroke-width:0.7928;stroke-linecap:round;stroke-linejoin:round;stroke-miterlimit:10;" d="
			M414.579,300.469c0,0,0.684-13.896,5.132-20.204"/>
		
			<path style="fill:none;stroke:#2D1D59;stroke-width:0.7928;stroke-linecap:round;stroke-linejoin:round;stroke-miterlimit:10;" d="
			M419.711,306.114c0,0,4.447-12.165,11.46-15.747"/>
		
			<path style="fill:none;stroke:#2D1D59;stroke-width:0.7928;stroke-linecap:round;stroke-linejoin:round;stroke-miterlimit:10;" d="
			M417.145,301.838c0,0,2.395-17.48,4.618-17.036c2.224,0.444-1.197,7.091-1.197,7.091"/>
		<polygon style="fill:#D97E7E;" points="385.944,392.051 385.944,408.832 374.448,408.832 371.409,392.051 		"/>
		<path style="fill:#16367C;" d="M375.109,407.255c0,0,5-2.105,9.602,0c1.233,0.564,1.233-1.55,1.233-1.55s1.674,1.586,1.938,5.109
			c0.264,3.524-0.969,5.021,0.352,7.664c1.321,2.643,4.044,5.956,1.938,11.011c-0.881,2.114-2.29,4.845-8.809,4.845
			c-6.519,0-10.13-2.731-10.659-6.959c-0.529-4.228,1.586-8.104,1.674-11.452c0.088-3.347-0.919-8.482,1.214-11.816
			C373.593,404.107,373.753,407.693,375.109,407.255z"/>
		<path style="fill:#0A2863;" d="M380.783,431.427c-5.697,0-8.619-2.279-10.115-4.47c0.012,0.139,0.019,0.278,0.037,0.418
			c0.529,4.228,4.14,6.959,10.659,6.959c6.519,0,7.928-2.731,8.809-4.845c0.24-0.575,0.41-1.125,0.534-1.657
			C388.8,429.715,385.72,431.427,380.783,431.427z"/>
		<path style="fill:#3C36A8;" d="M367.71,269.694c18.499,0,18.709,20.349,19.397,35.941c0.688,15.592,3.33,26.691,2.273,40.433
			s2.643,30.391-1.85,48.097h-19.82c0,0-7.135-21.033-8.192-36.415c-1.057-15.382-7.4-34.938-7.4-46.037
			C352.118,300.614,342.578,269.694,367.71,269.694z"/>
		<path style="fill:#D97E7E;" d="M393.3,162.137c0.44,2.202,1.729,4.9,0.749,6.871c-0.941,1.893-2.995,1.85-2.995,1.85l3.648,7.496
			c0.22,0.453,0.68,0.74,1.183,0.74h1.508c0.887,0,1.56,0.793,1.409,1.667c-0.5,2.902-1.688,8.918-3.476,12.56
			c-2.422,4.933-7.179,6.959-8.148,9.646c-0.024-3.891-1.806-5.374-3.127-5.99c-1.321-0.617-4.184-1.674-4.889-6.563
			c-0.497-3.448-0.775-7.576-0.896-9.709c-0.045-0.792,0.566-1.465,1.358-1.503l0.944-0.046c0.665-0.032,1.136-0.661,0.98-1.308
			l-1.461-6.065c0,0-3.435-5.902-3.964-7.355c-0.529-1.453-4.361-5.902,1.762-10.174c6.122-4.272,15.68-6.078,16.869-2.378
			C395.942,155.574,393.3,162.137,393.3,162.137z"/>
		
			<line style="fill:none;stroke:#D95757;stroke-width:0.7647;stroke-linecap:round;stroke-linejoin:round;stroke-miterlimit:10;" x1="381.548" y1="177.848" x2="382.773" y2="183.102"/>
		<path style="fill:#D95757;" d="M391.053,170.857c-1.839,0.341-5.572-1.013-7.322-2.037c-1.751-1.024-1.883,0.859-0.529,1.553
			s3.634,3.237,5.649,4.592c1.239,0.833,2.564-0.495,3.402-1.642L391.053,170.857z"/>
		
			<path style="fill:none;stroke:#C9810C;stroke-width:0.7928;stroke-linecap:round;stroke-linejoin:round;stroke-miterlimit:10;" d="
			M387.177,202.966c-0.617,2.555-0.567,3.524-0.416,6.387c0.151,2.863,1.164,5.506,0.636,8.324s-0.67,5.638-0.291,7.488"/>
		<circle style="fill:#FFFFFF;" cx="382.101" cy="204.343" r="1.376"/>
		<circle style="fill:#FFFFFF;" cx="382.101" cy="212.689" r="1.376"/>
		<circle style="fill:#FFFFFF;" cx="382.101" cy="221.036" r="1.376"/>
		<path style="fill:#16367C;" d="M383.83,156.807c0,0-0.536,2.583-3.664,3.508c0,0,1.594,3.495,1.065,3.847
			c-0.529,0.352-1.894-1.674-3.303-0.793c-1.409,0.881-0.176,3.612,1.277,4.272c1.453,0.661,1.982,0,1.982,0l-1.101,4.14
			c0,0-3.479-4.272-6.739-6.519c-3.259-2.246-7.157-5.792-2.665-8.765c-1.85-4.889,1.52-9.382,6.144-9.426
			c1.938-4.801,12.861-7.752,15.019-0.793c5.153-2.202,12.068,1.806,8.501,6.783c-3.568,4.977-6.739,7.003-7.047,9.073l-1.409-6.254
			L383.83,156.807z"/>
	</g>
	<g>
		<path style="fill:#D97E7E;" d="M233.328,382.89c0,0,5.433,19.644,5.565,23.476c0.132,3.832-1.453,5.55,0.661,8.192
			c2.114,2.643,3.832,1.85,4.096,4.228c0.264,2.378,1.85,4.36,4.36,4.757c2.511,0.396,6.342-0.661,6.078-3.568
			c-0.264-2.907-4.36-6.607-5.285-7.796c-0.925-1.189-3.303-6.21-3.303-6.21l-0.544-23.08H233.328z"/>
		<path style="fill:#D97E7E;" d="M157.884,382.868l-5.618,21.7l-7.727,5.322c0,0-7.392,1.62-7.385,3.206
			c0.007,1.586,4.066,3.056,9.17,1.935c5.104-1.121,9.88-2.064,12.321-2.564c3.96-0.811,1.902-7.585,1.902-7.585l9.943-21.188
			L157.884,382.868z"/>
		<path style="fill:#FFB637;" d="M271.075,264.321c0,0,3.171,13.566,2.819,24.313c-0.352,10.747-5.462,15.151-12.685,15.151
			c-7.223,0-14.094,0-14.094,0s-0.176,5.462-2.819,2.995c0,0,7.223,39.464,7.928,78.928H229.32l-17.97-81.571l-36.293,81.571
			c0,0-10.395,2.643-19.732,0c0,0,15.328-67.301,22.199-83.861c6.871-16.561,12.685-24.137,24.137-27.308
			c11.452-3.171,24.665-7.4,24.665-7.4l0.352-2.819H271.075z"/>
		
			<linearGradient id="SVGID_00000096043732537974142250000009050535284172441023_" gradientUnits="userSpaceOnUse" x1="168.3927" y1="313.7368" x2="249.3436" y2="313.7368">
			<stop  offset="0" style="stop-color:#997122;stop-opacity:0"/>
			<stop  offset="0.9611" style="stop-color:#997122"/>
		</linearGradient>
		<path style="fill:url(#SVGID_00000096043732537974142250000009050535284172441023_);" d="M218.926,284.185
			c8.192-4.14,13.478-5.726,13.478-5.726s1.321-5.153-1.982-6.871c-1.575-0.819-3.627-2.507-5.347-4.051
			c-3.553,1.123-14.069,4.414-23.414,7.002c-11.452,3.171-17.266,10.747-24.137,27.308c-3.97,9.569-10.764,36.08-15.793,56.758l0,0
			c0,0,4.737,4.42,11.08-2.847c6.342-7.267,11.231-19.027,18.631-20.217c2.483-0.399,4.825-1.187,6.85-2.055l13.058-29.349
			C209.808,296.297,210.733,288.325,218.926,284.185z"/>
		
			<path style="fill:none;stroke:#C9810C;stroke-width:0.7928;stroke-linecap:round;stroke-linejoin:round;stroke-miterlimit:10;" d="
			M232.403,278.459c0,0,7.223-3.303,12.245-3.832"/>
		
			<linearGradient id="SVGID_00000064328449312377666990000017320585672075234198_" gradientUnits="userSpaceOnUse" x1="249.9083" y1="291.2763" x2="249.9083" y2="265.8721">
			<stop  offset="0" style="stop-color:#997122;stop-opacity:0"/>
			<stop  offset="0.9611" style="stop-color:#997122"/>
		</linearGradient>
		<path style="fill:url(#SVGID_00000064328449312377666990000017320585672075234198_);" d="M273.244,276.925
			c-0.842-6.922-2.169-12.604-2.169-12.604h-44.397l-0.105,0.84l1.735,2.376c0,0,3.656,4.051,10.218,4.712
			c6.563,0.661,10.13-1.321,16.605,1.057C259.831,275.033,267.916,278.981,273.244,276.925z"/>
		
			<path style="fill:none;stroke:#C9810C;stroke-width:0.7928;stroke-linecap:round;stroke-linejoin:round;stroke-miterlimit:10;" d="
			M243.503,304.842c0,0-1.938-7.135-5.814-9.161c-3.876-2.026,1.938,4.581,1.938,4.581"/>
		
			<path style="fill:none;stroke:#C9810C;stroke-width:0.7928;stroke-linecap:round;stroke-linejoin:round;stroke-miterlimit:10;" d="
			M247.114,302.552c0,0-2.026-10.13-4.404-11.364c-2.378-1.233,0,3.171,0,3.171"/>
		<path style="fill:#D97E7E;" d="M277.77,239.656l27.308,62.937c0,0-1.652,1.765-1.784,3.879c-0.132,2.114,0.727,1.718,1.123,0.793
			c0.396-0.925,0.991-3.171,3.501-3.171c2.511,0,4.096-0.264,5.219,1.52c1.123,1.784,2.379,4.625,3.039,4.493
			c0.661-0.132-2.08-5.326-2.08-5.326s3.732,6.053,4.393,5.789c0.661-0.264-2.907-6.078-2.907-6.078s2.277,1.718,2.989,3.501
			c0.711,1.784,1.504,1.09,0.975-0.595c-0.241-0.767-2.444-3.435-2.444-3.435s1.619,0.33,2.742,2.114
			c1.08,1.715,1.09,0.165,0.562-1.024c-0.529-1.189-2.048-2.213-2.973-2.742c-0.925-0.529-5.506-2.202-7.422-3.061
			c0,0-0.903-28.849-8.302-41.138l-5.944-28.541L277.77,239.656z"/>
		<path style="fill:#D95757;" d="M279.976,244.74c1.502,0.438,4.528,0.881,8.289-0.9c3.753-1.776,7.421-1.486,10.107-1.749
			l-2.608-12.522l-17.995,10.086L279.976,244.74z"/>
		
			<path style="fill:none;stroke:#D95757;stroke-width:0.7647;stroke-linecap:round;stroke-linejoin:round;stroke-miterlimit:10;" d="
			M290.742,258.124c0,0,3.763-0.855,6.5,0"/>
		<path style="fill:#D97E7E;" d="M206.241,231.684l-4.493,17.31c0,0-18.763-14.138-21.802-17.31
			c-3.039-3.171-5.946-4.074-8.325-5.076s-0.793,1.244,1.454,2.301c0,0-1.189,0.396-3.436,0.661
			c-2.246,0.264-3.568-1.586-3.964-0.661c-0.396,0.925,2.07,2.246,4.184,1.982c0,0-1.718,0.837-3.48,0.484
			c-1.762-0.352-1.938-1.101-2.378-0.837c-0.44,0.264-0.398,0.973,1.012,1.633c1.41,0.661,3.525,0.701,4.714,0.393
			c0,0-2.334,0.925-3.788,0.617c-1.454-0.308-1.718-0.484-1.806,0.088c-0.088,0.573,0.881,1.101,2.202,1.233
			c1.321,0.132,3.215-0.264,3.215-0.264s-1.762,1.233-2.995,1.321c-1.233,0.088-1.497,0.881-0.969,1.189
			c0.529,0.308,4.175-0.349,5.364-1.318c0,0,1.991,0.526,4.854-0.355c0,0,13.786,30.127,28.673,30.127
			c9.69,0,14.206-13.479,16.737-22.463c2.432-8.634,1.806-10.204,1.806-10.204L206.241,231.684z"/>
		
			<path style="fill:none;stroke:#D95757;stroke-width:0.7647;stroke-linecap:round;stroke-linejoin:round;stroke-miterlimit:10;" d="
			M201.748,248.993c0,0,1.784,0.793,4.096,3.7"/>
		
			<path style="fill:none;stroke:#D95757;stroke-width:0.7647;stroke-linecap:round;stroke-linejoin:round;stroke-miterlimit:10;" d="
			M171.445,233.313c0,0,1.321-2.863,4.581-2.07"/>
		<path style="fill:#D95757;" d="M223.022,232.535l-16.781-0.852l-1.536,5.916c3.131,1.295,11.378,4.986,15.246,9.362
			c0.471-1.467,0.89-2.894,1.264-4.223C223.648,234.104,223.022,232.535,223.022,232.535z"/>
		<path style="fill:#18439C;" d="M255.35,197.461c0,0,6.783-1.189,10.748-1.982c3.964-0.793,12.685,0.793,19.952,8.457
			s19.027,21.29,19.027,21.29s-9.249,11.612-26.956,18.351l-3.339-6.337c0,0-3.539,20.087-2.5,23.118
			c1.039,3.03,4.782,5.285-1.164,6.871c-5.946,1.586-20.217,2.775-29.334,2.51c-9.117-0.264-19.556-0.661-22.595-2.378
			c-3.039-1.718,1.373-5.811,1.586-9.646c0.793-14.271-2.114-14.667-1.718-22.837l-18.235-0.947c0,0,6.871-17.257,11.496-25.476
			c4.625-8.219,11.187-11.786,21.846-10.861C244.824,198.518,248.795,198.642,255.35,197.461z"/>
		
			<linearGradient id="SVGID_00000054980836009896121570000009806749439516559771_" gradientUnits="userSpaceOnUse" x1="200.8233" y1="226.6073" x2="225.8628" y2="226.6073">
			<stop  offset="0" style="stop-color:#1D134F;stop-opacity:0"/>
			<stop  offset="1" style="stop-color:#1D134F"/>
		</linearGradient>
		<path style="fill:url(#SVGID_00000054980836009896121570000009806749439516559771_);" d="M202.302,230.297
			c-0.913,2.213-1.478,3.633-1.478,3.633l18.235,0.947c0.463-5.043,5.351-14.755,6.805-16.539
			C225.863,218.338,211.508,229.367,202.302,230.297z"/>
		
			<linearGradient id="SVGID_00000114068204686687186940000015352639831185898654_" gradientUnits="userSpaceOnUse" x1="254.455" y1="251.2477" x2="286.0351" y2="236.3165">
			<stop  offset="0" style="stop-color:#1D134F;stop-opacity:0"/>
			<stop  offset="1" style="stop-color:#1D134F"/>
		</linearGradient>
		<path style="fill:url(#SVGID_00000114068204686687186940000015352639831185898654_);" d="M256.918,269.234
			c5.723-0.461,11.097-1.178,14.201-2.006c5.946-1.586,2.203-3.841,1.164-6.871c-1.039-3.031,2.5-23.118,2.5-23.118
			c-2.299-4.631-4.551-9.832-4.765-14.232c-0.176-3.612-2.819-4.933-2.29,5.55c0.529,10.483,2.202,20.349-0.529,25.722
			C264.469,259.65,267.926,266.484,256.918,269.234z"/>
		
			<path style="fill:none;stroke:#362CA1;stroke-width:0.5285;stroke-linecap:round;stroke-linejoin:round;stroke-miterlimit:10;" d="
			M223.022,252.693c0,0,9.865,9.778,11.143,8.589c1.278-1.189-1.365-3.7-1.365-3.7"/>
		
			<path style="fill:none;stroke:#362CA1;stroke-width:0.5285;stroke-linecap:round;stroke-linejoin:round;stroke-miterlimit:10;" d="
			M268.344,209.485c0,0-1.245,5.478,1.558,12.583"/>
		
			<path style="fill:none;stroke:#362CA1;stroke-width:0.5285;stroke-linecap:round;stroke-linejoin:round;stroke-miterlimit:10;" d="
			M265.85,213.449c0,0-0.568,2.881,2.218,6.924"/>
		<path style="fill:#16367C;" d="M248.804,412.18c-0.386-0.497-1.026-1.663-1.64-2.852c-2.735,0.083-4.85,1.794-4.85,1.794
			c-2.246-2.114-3.42-4.757-3.42-4.757c0.132,3.832-1.453,5.55,0.661,8.192c2.114,2.643,3.832,1.85,4.096,4.228
			c0.264,2.378,1.85,4.36,4.361,4.757c2.51,0.396,6.342-0.661,6.078-3.568C253.825,417.069,249.729,413.369,248.804,412.18z"/>
		<path style="fill:#16367C;" d="M149.269,406.631l-4.731,3.258c0,0-7.392,1.62-7.385,3.206c0.007,1.586,4.066,3.056,9.171,1.935
			c5.104-1.121,9.88-2.064,12.321-2.564c3.96-0.811,1.902-7.585,1.902-7.585s-6.544,4.788-7.953,4.7
			C151.584,409.518,150.572,407.694,149.269,406.631z"/>
		<path style="fill:#382C2C;" d="M244.21,155.426c0,0,3.844-2.082,7.977,3.063c4.133,5.145,5.713,5.029,6.644,9.418
			c0.931,4.389-0.397,8.235-5.946,9.909c-5.55,1.674-6.255,26.779-18.719,24.005c0,0-3.15,3.436-3.711,8.06
			c-0.561,4.625,1.024,10.307-9.15,13.742c-10.174,3.436-18.103,0.925-17.838-3.568c0.264-4.493,4.889-8.588,6.739-12.685
			c1.85-4.096-1.85-6.343-0.264-12.553s8.06-9.117,9.249-12.817c1.189-3.7-0.572-8.751,3.259-14.093
			c3.524-4.913,4.921-2.762,6.519-7.533C231.649,152.371,243.992,148.803,244.21,155.426z"/>
		<path style="fill:#D97E7E;" d="M247.07,160.859c0,0,4.997,2.206,6.475,6.342c0.661,1.85,2.907,3.292,2.907,3.292
			s3.854,8.051,0,10.318c-2.246,1.321-3.303,1.982-3.303,1.982s0.43,6.276,1.914,10.298c0.533,1.445,1.832,2.466,3.358,2.676
			l5.178,0.713c1.531,0.211,2.201,2.047,1.162,3.192c-2.806,3.093-8.428,7.698-17.029,7.698c-12.949,0-13.566-5.55-13.566-5.55
			s8.281-5.946,8.149-12.553c-0.132-6.607-0.661-8.192-0.661-8.192s-5.417-3.964-3.832-6.871c1.586-2.907,5.021,1.697,5.021,1.697
			s1.057-0.929,0.925-3.625C243.767,172.276,247.731,169.624,247.07,160.859z"/>
		<path style="fill:#D95757;" d="M253.945,188.823c-0.594-3.123-0.796-6.03-0.796-6.03s0.719-0.449,2.202-1.33l0,0
			c0,0-4.844,0.934-7.883-0.52c-3.039-1.453-3.105-2.577-3.7-2.246c-0.595,0.33-0.661,1.85,1.454,3.502
			C247.11,183.675,250.897,189.681,253.945,188.823z"/>
	</g>
	<g>
		<path style="fill:#CD794F;" d="M331.079,151.853c-1.112-3.39,3.773-7.602,11.613-9.98c7.84-2.378,17.53-2.819,19.204,2.378
			s8.589,26.075,6.755,34.443c-3.22,14.698-43.621,20.437-54.853,23.344c0,0-2.114,1.762-4.493,2.378
			c-2.378,0.617-6.078,5.99-7.752,5.946c-1.674-0.044,1.938-2.334,3.612-4.977c0,0-7.135,4.184-7.752,3.325s5.109-2.797,6.254-4.471
			c0,0-7.047,3.259-7.84,2.29c-0.793-0.969,6.078-2.995,7.311-4.052c0,0-6.695,2.599-6.959,1.343
			c-0.264-1.255,5.814-2.136,6.959-3.193c1.145-1.057-0.264-0.925-1.498-1.431c-1.233-0.506-1.586-2.092-0.44-1.916
			c1.145,0.176,3.259,0.881,3.259,0.881s3.612-1.145,6.078-0.881c0,0,21.8-20.8,31.049-24.588
			C341.588,172.693,333.266,158.521,331.079,151.853z"/>
		
			<path style="fill:none;stroke:#BF5521;stroke-width:0.7647;stroke-linecap:round;stroke-linejoin:round;stroke-miterlimit:10;" d="
			M341.588,172.693c3.218-1.399,8.327-1.842,10.617-1.18"/>
		
			<path style="fill:none;stroke:#BF5521;stroke-width:0.7647;stroke-linecap:round;stroke-linejoin:round;stroke-miterlimit:10;" d="
			M363.481,176.844c0,0-3.259,2.762-3.964,6.622"/>
		<path style="fill:#BF5521;" d="M361.896,144.251c-1.674-5.197-11.364-4.757-19.204-2.378c-7.84,2.378-12.725,6.591-11.613,9.98
			c0.159,0.484,0.35,1.008,0.568,1.563c0.491,1.249,2.155,1.472,2.981,0.414c2.993-3.83,8.281-5.438,14.406-4.206
			c4.847,0.975,10.6,1.098,14.478-0.29C362.829,147.126,362.246,145.34,361.896,144.251z"/>
	</g>
</g>
</svg>
